<?xml version="1.0" encoding="UTF-8"?>
<svg id="Layer_1" data-name="Layer 1" xmlns="http://www.w3.org/2000/svg" viewBox="0 0 714.43 715.07">
  <defs>
    <style>
      .cls-1 {
        fill: #0556a5;
      }

      .cls-1, .cls-2, .cls-3, .cls-4, .cls-5, .cls-6, .cls-7, .cls-8, .cls-9, .cls-10, .cls-11, .cls-12, .cls-13, .cls-14, .cls-15, .cls-16, .cls-17, .cls-18, .cls-19, .cls-20, .cls-21, .cls-22, .cls-23, .cls-24, .cls-25, .cls-26, .cls-27, .cls-28, .cls-29, .cls-30, .cls-31, .cls-32, .cls-33, .cls-34, .cls-35, .cls-36, .cls-37, .cls-38, .cls-39, .cls-40, .cls-41, .cls-42, .cls-43, .cls-44, .cls-45, .cls-46, .cls-47, .cls-48, .cls-49, .cls-50, .cls-51, .cls-52, .cls-53, .cls-54, .cls-55, .cls-56, .cls-57, .cls-58, .cls-59, .cls-60, .cls-61, .cls-62, .cls-63, .cls-64, .cls-65, .cls-66, .cls-67, .cls-68, .cls-69, .cls-70, .cls-71, .cls-72, .cls-73, .cls-74, .cls-75, .cls-76, .cls-77, .cls-78, .cls-79, .cls-80, .cls-81, .cls-82, .cls-83, .cls-84, .cls-85, .cls-86, .cls-87, .cls-88, .cls-89, .cls-90, .cls-91, .cls-92, .cls-93, .cls-94, .cls-95, .cls-96, .cls-97, .cls-98, .cls-99, .cls-100, .cls-101, .cls-102, .cls-103, .cls-104, .cls-105, .cls-106, .cls-107, .cls-108, .cls-109, .cls-110, .cls-111, .cls-112, .cls-113, .cls-114, .cls-115, .cls-116, .cls-117, .cls-118, .cls-119, .cls-120, .cls-121, .cls-122, .cls-123, .cls-124, .cls-125, .cls-126, .cls-127, .cls-128, .cls-129, .cls-130, .cls-131, .cls-132, .cls-133, .cls-134, .cls-135, .cls-136, .cls-137, .cls-138, .cls-139, .cls-140, .cls-141, .cls-142, .cls-143, .cls-144, .cls-145, .cls-146, .cls-147, .cls-148, .cls-149, .cls-150, .cls-151, .cls-152, .cls-153, .cls-154, .cls-155, .cls-156, .cls-157, .cls-158, .cls-159, .cls-160, .cls-161, .cls-162, .cls-163, .cls-164, .cls-165, .cls-166, .cls-167, .cls-168, .cls-169, .cls-170, .cls-171, .cls-172, .cls-173, .cls-174, .cls-175, .cls-176, .cls-177, .cls-178, .cls-179, .cls-180, .cls-181, .cls-182, .cls-183, .cls-184, .cls-185, .cls-186, .cls-187, .cls-188, .cls-189, .cls-190, .cls-191, .cls-192, .cls-193 {
        stroke-width: 0px;
      }

      .cls-2 {
        fill: #c2875b;
      }

      .cls-3 {
        fill: #cbada6;
      }

      .cls-4 {
        fill: #f9f8fa;
      }

      .cls-5 {
        fill: #cd5119;
      }

      .cls-6 {
        fill: #dee4f2;
      }

      .cls-7 {
        fill: #f9f9f8;
      }

      .cls-8 {
        fill: #07518a;
      }

      .cls-9 {
        fill: #7999d2;
      }

      .cls-10 {
        fill: #d0361a;
      }

      .cls-11 {
        fill: #291337;
      }

      .cls-12 {
        fill: #0c0c36;
      }

      .cls-13 {
        fill: #0d0d38;
      }

      .cls-14 {
        fill: #d0a568;
      }

      .cls-15 {
        fill: #ebeef5;
      }

      .cls-16 {
        fill: #cfa524;
      }

      .cls-17 {
        fill: #f9f9f9;
      }

      .cls-18 {
        fill: #4ca2d3;
      }

      .cls-19 {
        fill: #f2f5f8;
      }

      .cls-20 {
        fill: #fafaf9;
      }

      .cls-21 {
        fill: #e4e2f3;
      }

      .cls-22 {
        fill: #5a5a63;
      }

      .cls-23 {
        fill: #911314;
      }

      .cls-24 {
        fill: #676470;
      }

      .cls-25 {
        fill: #a3172a;
      }

      .cls-26 {
        fill: #fafafb;
      }

      .cls-27 {
        fill: #e5b661;
      }

      .cls-28 {
        fill: #0c0e34;
      }

      .cls-29 {
        fill: #f7a35f;
      }

      .cls-30 {
        fill: #e88a12;
      }

      .cls-31 {
        fill: #902133;
      }

      .cls-32 {
        fill: #141336;
      }

      .cls-33 {
        fill: #7c7c86;
      }

      .cls-34 {
        fill: #144b72;
      }

      .cls-35 {
        fill: #431523;
      }

      .cls-36 {
        fill: #0d0f3b;
      }

      .cls-37 {
        fill: #0c0e37;
      }

      .cls-38 {
        fill: #f5f5fa;
      }

      .cls-39 {
        fill: #97949a;
      }

      .cls-40 {
        fill: #31647e;
      }

      .cls-41 {
        fill: #ae143b;
      }

      .cls-42 {
        fill: #070b39;
      }

      .cls-43 {
        fill: #37383e;
      }

      .cls-44 {
        fill: #f4f2f7;
      }

      .cls-45 {
        fill: #326784;
      }

      .cls-46 {
        fill: #076cb2;
      }

      .cls-47 {
        fill: #1c4972;
      }

      .cls-48 {
        fill: #fbd14c;
      }

      .cls-49 {
        fill: #a91677;
      }

      .cls-50 {
        fill: #0c0c34;
      }

      .cls-51 {
        fill: #0c0c33;
      }

      .cls-52 {
        fill: #0b0c36;
      }

      .cls-53 {
        fill: #b4b4b5;
      }

      .cls-54 {
        fill: #080c39;
      }

      .cls-55 {
        fill: #0a0c35;
      }

      .cls-56 {
        fill: #090d39;
      }

      .cls-57 {
        fill: #faf9fb;
      }

      .cls-58 {
        fill: #f2f2f8;
      }

      .cls-59 {
        fill: #c71b40;
      }

      .cls-60 {
        fill: #703e7c;
      }

      .cls-61 {
        fill: #f4f4f9;
      }

      .cls-62 {
        fill: #4e181f;
      }

      .cls-63 {
        fill: #7f335c;
      }

      .cls-64 {
        fill: #0d0e39;
      }

      .cls-65 {
        fill: #faf9fa;
      }

      .cls-66 {
        fill: #f4f5f7;
      }

      .cls-67 {
        fill: #2f0c13;
      }

      .cls-68 {
        fill: #d88939;
      }

      .cls-69 {
        fill: #e9bb6a;
      }

      .cls-70 {
        fill: #1c3b5f;
      }

      .cls-71 {
        fill: #8f7aac;
      }

      .cls-72 {
        fill: #434151;
      }

      .cls-73 {
        fill: #ef1408;
      }

      .cls-74 {
        fill: #0a6ab4;
      }

      .cls-75 {
        fill: #0b0c37;
      }

      .cls-76 {
        fill: #f2f4f8;
      }

      .cls-77 {
        fill: #efeff1;
      }

      .cls-78 {
        fill: #cc4b1c;
      }

      .cls-79 {
        fill: #d5670e;
      }

      .cls-80 {
        fill: #090b35;
      }

      .cls-81 {
        fill: #111235;
      }

      .cls-82 {
        fill: #a81635;
      }

      .cls-83 {
        fill: #b39b5c;
      }

      .cls-84 {
        fill: #2a659f;
      }

      .cls-85 {
        fill: #564370;
      }

      .cls-86 {
        fill: #e29a2f;
      }

      .cls-87 {
        fill: #f6f5fa;
      }

      .cls-88 {
        fill: #b1afcb;
      }

      .cls-89 {
        fill: #33304b;
      }

      .cls-90 {
        fill: #181a25;
      }

      .cls-91 {
        fill: #fbfafc;
      }

      .cls-92 {
        fill: #ebb25e;
      }

      .cls-93 {
        fill: #247fc1;
      }

      .cls-94 {
        fill: #f3f4f8;
      }

      .cls-95 {
        fill: #fa9e5c;
      }

      .cls-96 {
        fill: #3b0e2c;
      }

      .cls-97 {
        fill: #0d0c34;
      }

      .cls-98 {
        fill: #f0b659;
      }

      .cls-99 {
        fill: #f6f7f9;
      }

      .cls-100 {
        fill: #f4f5f8;
      }

      .cls-101 {
        fill: #f0b667;
      }

      .cls-102 {
        fill: #dadbee;
      }

      .cls-103 {
        fill: #faf8fb;
      }

      .cls-104 {
        fill: #e49b0f;
      }

      .cls-105 {
        fill: #070c39;
      }

      .cls-106 {
        fill: #c7ba82;
      }

      .cls-107 {
        fill: #350a15;
      }

      .cls-108 {
        fill: #e3e5f4;
      }

      .cls-109 {
        fill: #fefcfe;
      }

      .cls-110 {
        fill: #190b2f;
      }

      .cls-111 {
        fill: #9a2a56;
      }

      .cls-112 {
        fill: #d2d4e8;
      }

      .cls-113 {
        fill: #949390;
      }

      .cls-114 {
        fill: #df380d;
      }

      .cls-115 {
        fill: #045fae;
      }

      .cls-116 {
        fill: #dbb67d;
      }

      .cls-117 {
        fill: #c8203c;
      }

      .cls-118 {
        fill: #0b0b37;
      }

      .cls-119 {
        fill: #0c0c37;
      }

      .cls-120 {
        fill: #d54c0f;
      }

      .cls-121 {
        fill: #edf0f7;
      }

      .cls-122 {
        fill: #faf9f9;
      }

      .cls-123 {
        fill: #87347a;
      }

      .cls-124 {
        fill: #fbf9fb;
      }

      .cls-125 {
        fill: #6e3b68;
      }

      .cls-126 {
        fill: #fafafa;
      }

      .cls-127 {
        fill: #fdd845;
      }

      .cls-128 {
        fill: #0c0c38;
      }

      .cls-129 {
        fill: #a81625;
      }

      .cls-130 {
        fill: #3e1013;
      }

      .cls-131 {
        fill: #e7250b;
      }

      .cls-132 {
        fill: #2c121b;
      }

      .cls-133 {
        fill: #0c0c3c;
      }

      .cls-134 {
        fill: #f6f6fa;
      }

      .cls-135 {
        fill: #543f65;
      }

      .cls-136 {
        fill: #d7dbed;
      }

      .cls-137 {
        fill: #52525a;
      }

      .cls-138 {
        fill: #1c193a;
      }

      .cls-139 {
        fill: #4a4a87;
      }

      .cls-140 {
        fill: #843e0c;
      }

      .cls-141 {
        fill: #0d0e34;
      }

      .cls-142 {
        fill: #0c0d34;
      }

      .cls-143 {
        fill: #ea2d5a;
      }

      .cls-144 {
        fill: #0d0d37;
      }

      .cls-145 {
        fill: #f5f4f9;
      }

      .cls-146 {
        fill: #d89d0a;
      }

      .cls-147 {
        fill: #22638c;
      }

      .cls-148 {
        fill: #593784;
      }

      .cls-149 {
        fill: #edeef5;
      }

      .cls-150 {
        fill: #d8810a;
      }

      .cls-151 {
        fill: #663d7a;
      }

      .cls-152 {
        fill: #0c0d39;
      }

      .cls-153 {
        fill: #484652;
      }

      .cls-154 {
        fill: #888782;
      }

      .cls-155 {
        fill: #0c0d36;
      }

      .cls-156 {
        fill: #8a704e;
      }

      .cls-157 {
        fill: #ddd4ca;
      }

      .cls-158 {
        fill: #fbfafa;
      }

      .cls-159 {
        fill: #0d0c37;
      }

      .cls-160 {
        fill: #ce7b12;
      }

      .cls-161 {
        fill: #f7f6fb;
      }

      .cls-162 {
        fill: #a01d12;
      }

      .cls-163 {
        fill: #499ad6;
      }

      .cls-164 {
        fill: #fcfafb;
      }

      .cls-165 {
        fill: #fbfafb;
      }

      .cls-166 {
        fill: #210f23;
      }

      .cls-167 {
        fill: #0b0d34;
      }

      .cls-168 {
        fill: #cd7123;
      }

      .cls-169 {
        fill: #0e0d34;
      }

      .cls-170 {
        fill: #a4a8d3;
      }

      .cls-171 {
        fill: #f1c436;
      }

      .cls-172 {
        fill: #0d0e36;
      }

      .cls-173 {
        fill: #151438;
      }

      .cls-174 {
        fill: #0b0c34;
      }

      .cls-175 {
        fill: #e2e2f0;
      }

      .cls-176 {
        fill: #643e6f;
      }

      .cls-177 {
        fill: #f7cb4a;
      }

      .cls-178 {
        fill: #0a6bb1;
      }

      .cls-179 {
        fill: #dbad39;
      }

      .cls-180 {
        fill: #f9f9fc;
      }

      .cls-181 {
        fill: #d69d10;
      }

      .cls-182 {
        fill: #e6b45f;
      }

      .cls-183 {
        fill: #f6b85c;
      }

      .cls-184 {
        fill: #72376b;
      }

      .cls-185 {
        fill: #0b0c39;
      }

      .cls-186 {
        fill: #ad1738;
      }

      .cls-187 {
        fill: #0a3370;
      }

      .cls-188 {
        fill: #f5f6fa;
      }

      .cls-189 {
        fill: #fcfbfb;
      }

      .cls-190 {
        fill: #256d93;
      }

      .cls-191 {
        fill: #e88f1a;
      }

      .cls-192 {
        fill: #8c6061;
      }

      .cls-193 {
        fill: #cc1b41;
      }
    </style>
  </defs>
  <path class="cls-42" d="M17.77,467.58c-5.36-13.98-8.58-28.55-11.37-43.18C1.59,399.15-.77,373.62.22,347.91c3.81-98.5,40.97-182.29,112.32-250.34C161.07,51.29,218.72,21.65,284.36,7.8c40.09-8.46,80.61-10.31,121.1-4.23,108.74,16.33,193.47,70.74,253.49,162.85,26.72,41.01,43.29,86.13,50.99,134.57,5.77,36.32,5.94,72.61.73,108.91-2.5,17.4-5.88,34.68-11.85,51.32-1.94,4.92-6.03,8.89-6.01,14.71,0,2.44-2.08,4.39-3.4,6.4-1.32,2.01-2.61.62-3.27-.82-.83-1.82-.77-3.87-.93-5.85,2.87-9.22,5.69-18.46,8.4-27.72,1.7-5.81,1.22-6.58-4.63-7.62-20.5-3.66-41.06-6.91-61.57-10.54-3.51-.62-4.94.2-5.96,3.74-10.84,37.69-29.05,71.5-54.36,101.43-21.84,25.83-47.68,46.82-77.27,63.28-27.67,15.39-57.17,25.42-88.31,30.65-17.93,3.01-36.06,4.46-54.22,3.55-43.38-2.18-84.43-12.93-122.55-34.21-25.23-14.08-47.96-31.38-67.6-52.51-29.25-31.46-50.73-67.54-62.99-108.89-.28-.96-.69-1.89-.87-2.87-.68-3.68-2.61-4.74-6.39-4.09-20.69,3.52-41.36,7.18-62.07,10.62-5.13.85-5.21,1.2-4.19,6.15,1.01,4.89,3.47,9.41,3.63,14.51-.48,6.04-.99,6.54-6.5,6.46Z"/>
  <path class="cls-80" d="M17.77,467.58c3.2-1.06,6.35-2.16,5.29-6.63,2.31.53,2.27,2.71,2.85,4.31,6.22,17.43,12.92,34.65,21.53,51.07,15.32,29.22,34.09,55.9,56.75,80,23.49,24.98,50.03,45.9,79.57,63.04,38.03,22.07,78.96,36.08,122.46,42.57,17.97,2.68,36.09,4.12,54.2,3.8,49.7-.89,97.4-10.97,142.67-32.06,27.97-13.03,53.95-29.13,77.43-49.05,33.45-28.38,61.3-61.43,82.31-100.16,7.81-14.4,14.39-29.28,20.5-44.42.61-1.5.9-3.28,2.82-3.84,1.41,1.84-.31,4.63,2.23,6.82.26-4.44,6.08-6.84,2.77-11.77,3.81-2.38,4.04-7.51,7.67-10.03-10.93,38.15-28.45,73.11-51.79,105.08-48.51,66.46-112.29,111.47-191.29,134.6-46.6,13.64-94.32,17.73-142.25,10.97-121.59-17.14-212.25-80.04-271.91-187.45-8.73-15.72-15.51-32.32-21.61-49.2-.9-2.49-1.47-5.1-2.2-7.65Z"/>
  <path class="cls-109" d="M686.15,476.21c-9.06,24.31-20.12,47.65-34.36,69.38-50.14,76.53-119.23,126.99-207.8,150.43-37,9.8-74.73,13.02-112.79,9.97-82.27-6.59-153.78-38.16-213.97-94.7-43.39-40.75-73.85-89.87-92.7-146.26-.46-1.36-.04-3.07-1.47-4.08-1.45-5.62-2.67-11.31-4.43-16.83-.98-3.07-.23-4.11,2.78-4.61,18.2-2.98,36.37-6.08,54.56-9.13,4.42-.74,8.94-1.14,13.25-2.31,3.23-.88,3.9.52,4.62,3.06,14.87,52.24,42.7,96.38,83.51,132.17,34.63,30.37,74.48,50.7,119.49,60.95,33.68,7.67,67.59,9.05,101.63,3.79,42.69-6.6,81.9-22.27,117.06-47.55,48.32-34.75,82.25-80.24,101.34-136.69,1.38-4.08,3.02-8.14,3.83-12.35.65-3.39,2.08-3.78,5.07-3.26,18.49,3.21,37.01,6.28,55.52,9.4,4.09.69,8.19,1.39,12.29,2.06,2.18.35,3.31.75,2.56,3.72-2.8,11.11-6.37,21.97-9.98,32.83Z"/>
  <path class="cls-91" d="M357.68,91.58c147.7.88,266.02,120.25,265.48,266.92-.54,146.41-120.67,266.98-269.93,264.83-146.07-2.1-264.51-123.2-261.71-271.07,2.68-141.72,118.28-260.48,266.16-260.69Z"/>
  <path class="cls-165" d="M136.9,143.34c-3.11-8.34-5.6-15.55-8.52-22.57-1.21-2.9-.83-4.68,1.36-6.88,7.08-7.1,6.99-7.19,14.2-.16,7.51,7.32,15,14.68,22.57,21.93,2.27,2.18,4.6,3.84.78,6.88-2.68,2.13-4.29,5.5-7.95.84-4.61-5.86-9.93-11.16-14.95-16.7-.61.48-1.21.96-1.82,1.44,2.46,6.95,4.93,13.9,7.36,20.87.74,2.13,1.7,3.98-.52,6.3-2.3,2.4-4.16,1.73-6.61.9-7.04-2.38-14.13-4.59-20.62-6.68,5.16,5.46,10.45,11.34,16.09,16.86,2.29,2.25,2.52,3.49.09,5.77-4.71,4.43-4.55,4.56-9.21.02-8.58-8.37-17.07-16.84-25.85-24.99-2.68-2.49-1.9-3.59-.08-6.2,4.55-6.51,9.63-7.04,16.42-3.78,5.14,2.47,10.79,3.88,17.26,6.12Z"/>
  <path class="cls-124" d="M645.27,260.99c8.16-3.11,15.32-5.97,22.59-8.52,1.69-.59,3.93-2.79,5.4-.76,1.58,2.19,2.25,5.11,2.97,7.8.29,1.09-1.13,1.32-2.06,1.67-12.87,4.87-25.72,9.77-38.59,14.64-1.01.38-1.95.96-3-.43-2.5-3.27-2.94-8.87-.73-12.38,5.45-8.67,10.88-17.35,16.96-27.05-8.72,3.28-16.43,6.05-24.03,9.11-2.61,1.05-3.58.49-4.56-2.07-2.47-6.48-2.6-6.41,4.16-8.95,10.55-3.97,21.07-8.01,31.66-11.88,1.8-.66,4.22-3.38,5.58-.95,1.68,3.02,4.5,6.33,1.82,10.48-5.58,8.64-10.98,17.4-16.45,26.11-.42.67-.76,1.4-1.71,3.17Z"/>
  <path class="cls-164" d="M469.42,74.33c2.76-7.75,5.66-15.45,8.21-23.27.97-2.96,2.1-3.7,5.1-2.53,6.14,2.39,6.17,2.23,4.01,8.32-4.11,11.56-8.24,23.11-12.22,34.71-.88,2.57-1.7,3.21-4.57,2.2-4.3-1.52-7.23-3.23-8.51-8.3-2.39-9.46-5.88-18.65-9.21-28.87-2.97,8.34-5.99,15.83-8.25,23.54-1.59,5.42-4.61,2.43-7.23,1.89-3-.61-4.23-1.95-2.92-5.43,4.34-11.48,8.23-23.12,12.5-34.62.66-1.77.51-5.5,2.9-4.87,3.28.86,7.68.64,9.12,5.4,3.03,9.98,6.36,19.86,9.53,29.79.26.81.43,1.6,1.54,2.04Z"/>
  <path class="cls-91" d="M107.76,214.29c-.06.84-.05,1.01-.08,1.18-1.92,10.61-10.11,11.94-18.72,12.64-1.97.16-3.77.16-5.01,2.41-1.79,3.24-2.67,5.67,2.07,6.74,1.1.25,2.08.97,3.13,1.46,6.41,3,6.78,5.13,2.32,10.87-1.25,1.61-2.23.84-3.33.32-12.26-5.85-24.5-11.74-36.75-17.59-1.57-.75-3.03-1.22-1.77-3.59,3.65-6.87,6.2-14.31,10.72-20.73,3.28-4.67,7.55-7.87,13.48-6.31,6.77,1.78,13.17,4.72,14.1,12.83.41,3.56,2.26,3.01,4.39,2.63,5.04-.89,10.07-1.86,15.45-2.86Z"/>
  <path class="cls-165" d="M345.47,47.95c0-6.82.11-13.64-.05-20.45-.06-2.65.8-3.36,3.41-3.27,6.64.25,13.29.05,19.91,1.11,11.2,1.8,18.24,9.81,18.43,21.27.22,13.29-5.99,21.6-17.68,23.92-7.45,1.48-14.93.35-22.39.5-2.94.06-2.56-1.75-2.54-3.63.05-6.49.02-12.97.02-19.46h.91Z"/>
  <path class="cls-91" d="M618.01,157.26c.05,13.19-10.48,24.11-23.32,24.18-13.81.08-25.28-11.05-25.46-24.69-.17-12.87,11.19-24.4,24.05-24.39,13.31,0,24.69,11.46,24.74,24.9Z"/>
  <path class="cls-65" d="M110.98,210.13c-.84-.57-1.52-1.02-2.19-1.48-11.27-7.67-22.51-15.37-33.83-22.97-1.95-1.31-2.14-2.29-.75-4.24,5.38-7.59,10.72-15.22,15.77-23.04,2.42-3.75,3.85-.48,5.32.5,1.53,1.01,4.91,1.43,2.33,4.88-3.48,4.66-6.47,9.67-9.9,14.37-2.71,3.7,1.01,4,2.61,5.22,1.62,1.24,3.37,3.73,5.51.22,2.51-4.11,5.59-7.88,8-12.05,2.45-4.23,4.22-.82,6.28.15,2.33,1.1,3.24,2.26,1.27,4.79-2.96,3.79-5.26,8.11-8.26,11.87-2.53,3.17-.03,4.13,1.88,5.07,1.84.9,3.51,4.88,6.16.54,3.11-5.1,6.83-9.82,9.96-14.91,1.94-3.15,3.68-1.35,5.09-.03,1.34,1.24,5.35,1.23,2.91,4.82-5.6,8.25-11.2,16.49-16.81,24.73-.35.51-.81.95-1.35,1.56Z"/>
  <path class="cls-164" d="M433.65,35.76c-.6,6.49-.78,6.61-7.17,5.42-4.4-.82-8.86-1.39-13.18-2.5-5.81-1.5-3.81,3.24-4.84,5.61-1.34,3.1.46,3.64,2.97,3.99,4.26.6,8.47,1.76,12.75,2.07,4.31.32,3.93,2.71,3.55,5.74-.41,3.25-1.93,3.95-4.96,3.26-4.36-1-8.88-1.35-13.19-2.49-5.45-1.45-3.41,3.11-4.25,5.1-.83,1.96-1.26,4.06,2.35,4.46,5.59.63,11.08,2.1,16.67,2.81,3.18.4,4.19,1.86,3.15,4.56-.77,2,.97,6.02-4.39,4.74-9.02-2.16-18.23-3.55-27.41-4.96-2.51-.38-3.04-1.28-2.63-3.48,2.51-13.36,5.07-26.72,7.4-40.11.43-2.45,1.27-2.94,3.52-2.5,8.95,1.75,17.91,3.43,26.89,4.99,2.18.38,3.5,1,2.76,3.3Z"/>
  <path class="cls-65" d="M190.82,100.18c-.13,1.76-1.44,2.11-2.32,2.76-3.88,2.86-7.77,5.71-11.78,8.38-3.82,2.54-.31,4.18.71,5.91,1.03,1.74,1.82,4.66,5.08,2.07,4.56-3.61,9.48-6.75,14.07-10.32,2.19-1.7,3.83-1.96,4.84.82.75,2.06,5.43,3.49.89,6.6-7.81,5.35-15.4,11.02-23.03,16.62-1.66,1.22-2.56,1.28-3.91-.62-7.98-11.26-16.08-22.43-24.27-33.54-1.41-1.92-.8-2.71.84-3.87,7.6-5.38,15.17-10.8,22.65-16.34,3.71-2.75,4.01,1.19,5.35,2.66,1.26,1.39,3.42,2.99.11,5.05-4.65,2.89-8.8,6.58-13.48,9.41-3.61,2.18-2,3.86-.39,6.09,1.71,2.36,2.9,4.88,6.35,1.74,3.06-2.78,6.61-5.04,10.08-7.32,1.22-.8,2.47-3.04,4.2-1.44,1.67,1.54,2.78,3.67,3.99,5.34Z"/>
  <path class="cls-124" d="M600.77,202.16c-.04-6.94,3.23-12.2,8.83-15.82,7.24-4.67,14.79-8.86,22.14-13.36,1.83-1.12,2.83-.8,4.03.88,4.36,6.12,4.34,6.38-2.11,10.18-5.72,3.37-11.5,6.66-17.13,10.17-5.07,3.17-7.06,7.85-5.51,12.12,2.1,5.78,8.38,7.95,14.51,4.61,6.99-3.82,13.95-7.76,20.58-12.16,3.44-2.28,4.58-.34,5.35,2.06.7,2.14,5.44,4.19.24,6.95-7.47,3.97-14.55,8.66-22.01,12.65-16.32,8.73-28.99-6.65-28.93-18.28Z"/>
  <path class="cls-165" d="M334,53.1c0,13.04-6.32,20.02-17.73,21.52-10.32,1.35-19.07-4.15-21.26-14.37-1.91-8.9-2.73-18.04-4.1-27.06-.34-2.23.55-2.7,2.64-2.97,7.49-.97,7.37-1.07,8.31,6.61.79,6.42,1.74,12.83,2.88,19.2,1.22,6.79,5.6,10.27,11.23,9.29,5.5-.96,8.52-6.07,7.53-12.62-1.16-7.72-2.18-15.45-3.44-23.15-.4-2.47.45-3.03,2.74-3.42,7.18-1.23,7.21-1.36,8.24,5.71,1.13,7.71,2.16,15.44,2.97,21.26Z"/>
  <path class="cls-165" d="M74,315.88c-.18,13.47-9.09,21.53-22.69,20.16-7.76-.78-15.44-2.25-23.2-3.03-4.4-.44-3.41-3.15-2.9-5.62.49-2.37-.41-5.85,4.44-4.99,7.67,1.37,15.43,2.36,23.2,3.08,6.85.63,11.14-2.45,11.94-7.79.79-5.34-2.37-9.38-9.31-10.71-7.97-1.53-16.03-2.68-24.1-3.54-3.82-.41-2.74-2.92-2.29-4.57.56-2.09-1.02-6.21,3.4-5.66,9.38,1.16,18.81,2.23,28.03,4.21,8.82,1.9,13.62,9.17,13.49,18.47Z"/>
  <path class="cls-91" d="M72,262.37c.08,4.23-1.19,8.21-2.52,12.12-.88,2.6-.26,3.73,2.31,4.14.81.13,1.6.42,2.39.65,7.36,2.13,7.64,2.84,4.59,9.86-.76,1.74-1.44,2.11-3.34,1.53-13.13-4.06-26.3-7.99-39.49-11.88-1.73-.51-2.63-1.16-1.95-3.09,2.57-7.32,3.68-15.17,7.77-21.94,4.13-6.84,9.5-8.83,17.4-6.58,9.24,2.63,12.87,6.93,12.84,15.19Z"/>
  <path class="cls-165" d="M231.12,60.23c-3.07-.3-5.94.38-8.65,1.77-2.24,1.15-3.92,2.75-3.14,5.49.7,2.48,2.71,3.2,5.11,2.93,3.95-.45,7.88-1.18,11.84-1.38,7.69-.38,12.17,2.55,14.36,8.95,2.06,6.02-.26,12.41-6.16,16.38-6.98,4.7-14.58,6.02-22.82,3.95-2.39-.6-2.52-1.43-2.15-3.79.79-4.96,2.46-7.03,7.91-5.38,3.62,1.1,7.61.46,10.98-1.89,1.76-1.23,2.92-2.75,2.26-5.04-.65-2.27-2.27-3.16-4.55-2.93-4.13.42-8.24,1.01-12.37,1.27-7.77.48-12.32-2.5-14.58-9.28-1.84-5.52.41-11.74,5.99-15.6,5.66-3.91,12-5.57,18.88-4.61,1.47.21,4.53-.53,3.29,2.61-.93,2.35,1.58,7.27-4.22,6.54-.65-.08-1.33-.01-1.99,0Z"/>
  <path class="cls-126" d="M71.23,360.22c.17,7.53-1.79,13.25-5.47,18.4-1.12,1.57-2.47,3.81-4.38,1-1.41-2.07-7-1.87-3.73-6.64,2.36-3.44,4.5-7,4.36-11.44-.09-2.8-.32-5.55-3.7-6.18-3.45-.64-4.65,1.92-5.48,4.56-1.08,3.48-1.8,7.08-3.03,10.49-2.57,7.08-6.45,9.68-13.49,9.42-6.02-.22-10.36-4.04-12.31-10.54-2.21-7.37-.43-14.1,2.99-20.62.9-1.71,2.04-3.63,4-1.5,1.63,1.77,6.73,1.47,4.07,6.14-1.67,2.92-2.68,6.1-2.83,9.45-.12,2.83.72,5.56,3.79,6.21,3.13.66,4.29-1.79,5.01-4.36.98-3.51,1.78-7.09,3.04-10.5,2.58-7.01,7.8-10.38,14.46-9.68,6.55.69,11.43,5.78,12.4,12.96.18,1.32.28,2.65.3,2.81Z"/>
  <path class="cls-124" d="M672.79,312.74c3.11-4.26,4.6-8.4,3.65-13.12-1.27-6.32-5.93-10.95-11.49-11.54-7.24-.77-13.08,2.15-15.79,7.91-2.6,5.52-1.05,12.24,3.72,16.88,1.06,1.03,3.73,1.32,2.74,3.47-1.01,2.22-2.65,4.22-4.3,6.05-.66.74-1.73-.18-2.58-.72-8.68-5.57-12.8-17.75-9.51-28.27,3.31-10.57,13.33-16.81,25.84-16.07,9.71.57,18.37,8.68,20.76,18.69,1.48,6.2.54,11.82-1.97,17.43-1.48,3.32-3.25,4.85-6.57,1.85-1.19-1.07-2.84-1.64-4.5-2.56Z"/>
  <path class="cls-126" d="M559.11,98.15c11.68.1,22.14,9.08,24.52,20.37,1.06,5-2.12,4.84-5.09,5.57-3.01.74-4.27.07-4.8-3.41-1.14-7.53-8.9-13.25-15.75-12.3-6.85.95-13.24,8.24-13.1,14.94.16,7.26,6.44,13.86,14.43,13.67,6.43-.15,4.13,4.07,4.47,6.92.5,4.24-3.07,2.71-4.84,2.7-13.62-.11-24.52-11.5-24.27-25.09.23-12.73,11.47-23.47,24.43-23.36Z"/>
  <path class="cls-26" d="M258.01,49.12c-2.78.77-5.76,1.32-8.5,2.45-2.24.92-3.46.14-3.27-1.8.21-2.22-4.25-5.07.36-6.58,10.38-3.4,20.82-6.68,31.38-9.48,3.41-.9,2.14,3.18,3.17,4.86.89,1.44,1.8,3.07-.92,3.79-2.24.6-4.39,1.61-6.66,1.97-3.64.58-3.82,2.28-2.82,5.42,3.02,9.47,5.48,19.12,8.68,28.52,1.53,4.49-1.6,4.17-3.88,4.83-2.41.7-5.12,2.94-6.38-1.91-2.49-9.61-5.45-19.1-8.39-28.59-.39-1.27-.12-3.58-2.76-3.47Z"/>
  <path class="cls-124" d="M500.32,56.34c.87.43,1.62.78,2.35,1.18,8.75,4.73,17.37,9.71,26.29,14.1,4.62,2.28,1.33,4.34.58,6.6-.99,3-2.47,2.93-5.1,1.46-8.3-4.65-8.35-4.5-12.98,4.09-3.85,7.14-7.98,14.13-11.57,21.4-1.38,2.8-2.48,2.63-4.8,1.42-6.14-3.19-6.19-3.1-2.91-9.14,4.35-8.02,8.58-16.12,13.14-24.02,1.58-2.74,1.25-4.03-1.62-5.06-1.38-.5-2.6-1.41-3.91-2.11-3.95-2.11-4.25-6.42-.63-9.3.36-.28.83-.43,1.17-.6Z"/>
  <path class="cls-189" d="M667.01,351.33c6.65,0,13.3.09,19.94-.05,2.61-.05,3.84.38,3.79,3.47-.11,7.23.07,7.24-7.15,7.1-8.97-.18-17.95-.23-26.91-.62-3.14-.13-4.04.85-3.91,3.88.19,4.31-.26,8.65-.03,12.96.22,4.11-2.57,2.98-4.63,2.95-2.05-.03-4.78,1.08-4.61-3.05.32-7.97.34-15.95.23-23.92-.04-3,1.11-3.53,3.83-3.44,6.47.22,12.96.07,19.43.07,0,.21,0,.42,0,.64Z"/>
  <path class="cls-165" d="M689.37,332.7c1.43,4.8-.79,5.3-3.91,5.51-12.61.82-25.22,1.69-37.8,2.87-3.59.34-4.86-.72-4.67-4.14.15-2.82-1.83-6.34,3.69-6.63,13.11-.7,26.2-1.8,39.29-2.86,5.65-.46,2.57,4.13,3.4,5.27Z"/>
  <path class="cls-118" d="M609.34,535.59c4.53,3.13,8.07,5.85,11.87,8.11,2.65,1.58,1.5,2.78.52,4.66-1.28,2.46-2.46,1.87-4.2.65-5.73-4-11.56-7.85-17.27-11.88-1.22-.86-3.88-1.24-3.07-3.21.86-2.09,1.99-4.52,5.27-4.49,5.32.05,10.65-.29,15.97-.53.96-.04,1.91-.38,3.65-.75-4.38-2.98-8.1-5.72-12.03-8.11-2.58-1.56-1.53-2.79-.48-4.67,1.22-2.2,2.2-2.19,4.1-.84,5.83,4.13,11.81,8.04,17.66,12.15,1.18.83,3.7,1.28,2.58,3.42-.98,1.87-1.79,4.14-4.89,4.21-6.14.13-12.27.76-19.69,1.27Z"/>
  <path class="cls-55" d="M652.26,470.9c-5.39-2.25-9.44-4.18-13.65-5.61-3.03-1.02-2.39-2.48-1.69-4.77,1.01-3.34,2.78-1.82,4.48-1.11,6.28,2.6,12.57,5.17,18.78,7.92,1.31.58,4.04.3,3.48,2.64-.52,2.19-.84,4.8-4.15,5.51-6.15,1.32-12.18,3.18-18.93,4.99,4.71,2.04,8.69,4,12.84,5.45,2.76.96,2.96,2.18,2.04,4.69-1.11,3.01-2.83,1.92-4.62,1.18-6.29-2.6-12.62-5.11-18.81-7.92-1.23-.56-3.88-.25-3.4-2.71.43-2.2,1.06-4.37,3.99-5.05,6.28-1.46,12.48-3.28,19.65-5.21Z"/>
  <path class="cls-75" d="M134.91,572.43c-2.38,2.51-4.74,5.05-7.16,7.54q-4.44,4.57-9.08-.95c5.73-5.45,11.48-11,17.33-16.43,1.04-.97,1.72-3.45,3.82-1.98,1.7,1.2,3.45,2.57,3.1,5.24-.84,6.26-1.52,12.54-2.34,19.5,4.13-2.7,6.7-6.11,9.7-9.03,1.59-1.55,2.64-3.31,5.13-.75,2.15,2.22,1.55,3.24-.35,5.06-4.92,4.72-9.53,9.76-14.41,14.53-.98.96-1.69,3.57-3.67,2.12-1.73-1.27-3.93-2.6-3.51-5.57.89-6.25,1.58-12.52,2.36-18.79-.31-.16-.61-.33-.92-.49Z"/>
  <path class="cls-52" d="M345.77,672.09c.38-5.7.76-10.1.93-14.51.09-2.12-.09-3.69,3.06-3.57,3.18.12,3.38,1.54,3.22,4.02-.43,6.64-.62,13.29-1.12,19.92-.12,1.54,1.21,4.2-1.55,4.47-2.46.25-5.09.5-6.87-2.56-2.9-4.98-6.39-9.62-10.32-15.4-.47,5.43-1.04,9.76-1.15,14.11-.07,2.55-1.04,2.95-3.3,2.87-2.31-.08-3.19-.73-3.02-3.17.54-7.63.87-15.27,1.3-22.9.05-.95-.14-2.25,1.28-2.22,2.21.04,4.51-.57,6.15,2.05,3.34,5.34,7.02,10.46,11.39,16.9Z"/>
  <path class="cls-52" d="M603.55,567.47c-.31,3.73-2.67,6.31-5.03,8.88q-7,7.6-14.51.7c-3.91-3.59-7.78-7.21-11.75-10.73-1.15-1.02-1.78-1.74-.42-3.09,3.04-3.04,5.48-6.68,9.05-9.18,4.84-3.4,10.2-1.65,11.58,4.08.52,2.16.91,2.3,2.95,2.07,4.5-.51,8.21,3.02,8.14,7.27Z"/>
  <path class="cls-119" d="M427.83,663.25c.07,8.18-6.48,14.67-14.94,14.81-8.06.13-14.89-6.6-15.03-14.8-.13-7.8,6.73-14.53,15.09-14.81,8.16-.27,14.8,6.34,14.87,14.8Z"/>
  <path class="cls-51" d="M130.7,554.41c-.15,7.89-6.94,14.49-14.82,14.41-8.19-.09-15.18-7.23-15.05-15.38.12-7.89,6.88-14.49,14.75-14.39,8.24.1,15.27,7.24,15.12,15.36Z"/>
  <path class="cls-159" d="M199.83,616.66c-.03,7.79-6.9,14.59-14.71,14.57-8.13-.02-15.39-7.27-15.3-15.29.09-7.79,6.97-14.61,14.75-14.61,8.16,0,15.29,7.16,15.26,15.32Z"/>
  <path class="cls-50" d="M306.07,678.65c-8.58-.15-15.19-6.53-15.12-14.59.08-8.32,6.77-14.98,14.89-14.81,8.52.17,15.13,6.6,15.09,14.66-.05,8.46-6.53,14.89-14.86,14.74Z"/>
  <path class="cls-167" d="M491.89,627.51c.15,1.64-1.28,1.78-2.24,2.25-2.37,1.17-4.75,2.35-7.21,3.28-2.12.8-2.81,1.61-1.7,3.98,1.13,2.41,2.31,2.27,4.23,1.25,1.89-1,4.02-1.6,5.82-2.73,2.13-1.33,3.16-.64,4.06,1.38.89,2,.29,2.94-1.74,3.62-2.03.67-3.85,1.93-5.86,2.67-2.02.74-3.03,1.37-1.9,3.89,1.19,2.65,2.42,2.49,4.55,1.32,2.45-1.35,5.17-2.21,7.63-3.55,2.13-1.17,2.77-.22,3.68,1.55,1.06,2.06.42,2.9-1.46,3.71-4.7,2.04-9.4,4.1-13.99,6.38-2.05,1.02-3.01.39-3.82-1.42-3.11-6.95-6.2-13.9-9.4-20.81-.74-1.6-.99-2.61.97-3.47,4.84-2.12,9.57-4.48,14.4-6.6,1.95-.86,4.07,1.02,3.98,3.29Z"/>
  <path class="cls-12" d="M553.26,617.16c-.9.78-1.57,1.49-2.35,2.03-4.78,3.31-9.58,6.58-14.37,9.86-3.88-4.08-6.76-8.9-9.86-13.54-2.09-3.12-6.5-6.1-5.6-9.4.75-2.74,5.4-4.43,8.34-6.57,1.61-1.18,3.34-2.21,4.85-3.5,1.85-1.58,2.86-1.21,4.31.71,1.7,2.25.51,3.03-1.13,4.11-2.22,1.46-4.33,3.08-6.55,4.55-1.55,1.03-2.52,1.87-1.01,3.87,1.32,1.76,2.35,2.58,4.32.98,1.81-1.46,3.83-2.66,5.63-4.12,1.59-1.28,2.67-1.44,3.94.51,1.14,1.76,1.19,2.92-.66,4.08-1.83,1.15-3.51,2.54-5.39,3.59-2.16,1.22-2.59,2.19-1.06,4.58,1.67,2.6,2.83,1.31,4.28.32,2.46-1.68,4.87-3.44,7.32-5.15.79-.55,1.64-1.39,2.56-.27.82,1,1.52,2.1,2.43,3.36Z"/>
  <path class="cls-128" d="M70.78,513.02c-2.62-3.37-4-6.32-.35-9.28,1.4-1.13,1.3-2.35.39-3.8-2.41-3.84-2.65-9.94-10-8.33-1.73.38-2.8-2.84-2.84-4.68-.04-2.19,2.28-1.34,3.52-1.42,7.62-.49,15.25-.76,22.87-1.21,2.35-.14,3.77.27,5.05,2.71,1.38,2.65.24,3.9-1.2,5.58-5.82,6.76-11.59,13.57-17.45,20.43Z"/>
  <path class="cls-55" d="M637.14,524.36c-5.83-7.44-11.49-14.8-17.35-21.99-1.39-1.71-.88-2.94-.1-4.45.85-1.65,1.66-3.05,4.03-2.81,8.58.89,17.18,1.59,25.76,2.4.83.08,2.56-.07,1.9,1.33-.9,1.89-1.04,4.77-4.19,4.78-1.74.01-3.89-1.4-5.13.3-1.93,2.65-3.33,5.7-4.95,8.57-.63,1.12.04,2.02.74,2.63,3.44,3.04,2.62,5.89-.71,9.23Z"/>
  <path class="cls-142" d="M214.03,649.62c6.96-6.56,13.88-13.01,20.69-19.58,1.61-1.55,2.87-.76,4.48-.22,2.09.7,2.76,1.87,2.73,4.04-.12,7.99,0,15.98-.13,23.96-.02,1.15,1.18,3.65-1.3,3.31-1.76-.24-4.38-.46-4.78-3.39-.25-1.83,1.19-4.21-1.04-5.41-2.9-1.56-6.01-2.75-9.07-4.02-.88-.36-1.46.42-2.14.91-4.28,3.14-4.29,3.12-9.45.39Z"/>
  <path class="cls-141" d="M513.02,641.5c-8.11.11-14.89-6.63-15-14.89-.1-7.77,7.14-14.82,15.24-14.72,1.59.02,3.87-.68,3.58,2.51-.2,2.23-.21,3.52-3.31,3.32-3.9-.26-7.11,1.89-8.42,5.78-1.38,4.1.18,7.59,3.35,10.23,2.68,2.23,5.72,2.2,8.87.7,3.6-1.71,4.68-3.96,2.01-7.3-1.64-2.05-1.64-3.35.98-4.94,2.92-1.78,3.55-.18,4.69,1.84,4.73,8.33-1.41,17.33-11.98,17.47Z"/>
  <path class="cls-159" d="M159.12,613.28c-5.56-.03-12.55-6.7-13.21-12.46-.2-1.77.5-2.6,2.12-2.48,1.36.1,3.31-1.64,3.94,1.27.57,2.62,1.75,5.01,4,6.68,1.28.95,2.64,1.49,4.01.15,1.18-1.16.83-2.41.07-3.61-1.41-2.24-2.94-4.41-4.28-6.69-1.8-3.05-1.5-6.05.73-8.75,2.33-2.82,5.28-3.87,8.89-2.72,4.61,1.46,7.51,4.74,9.39,8.97.55,1.22,2.12,3.07-1.03,3.64-1.85.33-3.81,2.06-4.29-1.45-.08-.62-.51-1.24-.91-1.76-1.48-1.96-3.11-4.92-5.81-3.22-3.15,1.98-.19,4.24.95,6.23,1.22,2.13,2.94,3.95,3.39,6.56.89,5.08-2.82,9.68-7.98,9.65Z"/>
  <path class="cls-152" d="M395.85,675.66c-6.08,6.39-12.6,7.93-19.19,4.55-5.92-3.04-9.01-9.75-7.54-16.42,2.13-9.69,13.96-14.59,22.55-9.24,1.19.74,3.84,1.23,1.91,3.9-1.36,1.89-2.19,3.44-4.93,1.42-3.3-2.44-6.97-1.87-10.18.6-2.98,2.29-3.53,5.48-2.7,8.96,1.4,5.92,7.81,8.62,12.81,4.72,3.45-2.69,5.03-1.41,7.26,1.49Z"/>
  <path class="cls-97" d="M112.91,530.98c-.32,1.36.77,3.78-2.46,3.52-2.35-.19-3.78-.5-3.68-3.66.15-5.08-3.1-8.42-7.58-8.86-4.41-.43-8.19,2.19-9.36,6.48-1.18,4.31.74,8.3,5.71,10.06,3.02,1.07,2.18,2.57,1.72,4.54-.77,3.27-3.01,1.43-4.3,1.01-6.74-2.19-11.02-10.31-9.33-17.18,1.81-7.31,8.81-12.4,15.8-11.49,7.87,1.03,13.59,7.57,13.48,15.59Z"/>
  <path class="cls-174" d="M263.51,638.98c5.28.64,9.9,2.49,12.88,7.31.84,1.36,1.57,2.72-.63,3.47-1.43.49-2.43,2.52-4.44-.09-4.19-5.44-9.89-5.95-13.59-1.73-2.74,3.12-3.68,6.76-1.41,10.57,2.26,3.79,5.94,5.1,9.89,3.66,3.19-1.16,4.15.31,4.82,2.63.98,3.37-2.24,2.86-3.68,3.22-6.18,1.53-11.58-.2-15.65-5.17-4.06-4.95-3.82-10.49-1.2-15.93,2.55-5.3,7.24-7.49,13-7.94Z"/>
  <path class="cls-144" d="M210.88,648.2c-4.97-2.71-9.81-5.26-14.56-7.99-1.31-.75-.04-1.77.35-2.51,3.65-6.88,7.42-13.7,11.02-20.61,1.04-1.99,2.02-2.06,3.83-.97,1.68,1.02,3.25,1.59,1.82,4.05-2.49,4.31-4.47,8.94-7.2,13.07-2.51,3.79-1.72,5.74,2.33,7.16,1.54.54,2.89,1.64,4.37,2.37,1.51.75,1.17,1.73.55,2.85-.62,1.13-.98,2.51-2.51,2.57Z"/>
  <path class="cls-28" d="M454.83,637.62c2.46-.1,2.46,1.31,2.81,2.28,1.87,5.13,3.77,10.25,5.45,15.45.82,2.53,1.76,3.68,4.5,2.12,1.7-.97,3.72-1.38,5.56-2.12,1.98-.8,2.97-.03,3.67,1.86.7,1.9.36,2.94-1.65,3.61-4.71,1.57-9.85,5.34-13.91,4.37-4.09-.97-3.81-7.98-5.62-12.27-1.42-3.35-2.64-6.79-3.86-10.22-1.06-2.96.65-5.14,3.05-5.09Z"/>
  <path class="cls-142" d="M438,672.66c-1.14.57-1.35-.81-1.65-1.89-2.16-7.63-4.22-15.3-6.48-22.9-.74-2.51.78-2.62,2.42-3.16,2.02-.67,3.28-.85,3.92,1.82,1.27,5.29,3.15,10.45,4.34,15.76.64,2.88,1.76,3.54,4.38,2.58,2.01-.73,4.11-1.24,6.17-1.82,2.04-.56,2.56.65,2.86,2.35.22,1.27,1.07,2.48-1.03,3.04-4.79,1.27-9.55,2.69-14.94,4.22Z"/>
  <path class="cls-155" d="M57.45,483.04c-1.81.46-1.72-.94-2.03-1.73-1.73-4.29-3.26-8.67-5.11-12.9-.93-2.13.22-2.6,1.73-3.18,7.25-2.77,14.56-5.39,21.7-8.42,2.54-1.08,2.58.23,3.34,1.85.89,1.91,1.41,3.33-1.08,4.26-5.1,1.92-10.15,3.98-15.29,5.77-2.67.93-3.96,2-2.25,4.91.91,1.54,1.18,3.45,2.01,5.05,2,3.85-1.72,3.3-3.03,4.37Z"/>
  <path class="cls-13" d="M615.12,556.65c-1.47,1.85-2.35,3.02-3.29,4.13-1.08,1.26-2.01.5-2.96-.26-6.21-4.96-12.42-9.92-18.66-14.84-2.2-1.73-.4-2.74.57-3.96.86-1.1,1.37-2.81,3.32-1.24,6.31,5.1,12.68,10.14,19.04,15.18.51.41,1.2.6,1.99.98Z"/>
  <path class="cls-169" d="M288.9,647.73c-2.07,8.4-3.98,16.44-6.05,24.45-.67,2.57-2.75,1.01-4.19.95-1.62-.06-2.29-1.1-1.89-2.75,1.95-7.86,3.91-15.72,5.79-23.6.45-1.9,1.68-2,2.95-1.36,1.25.63,3.67.05,3.39,2.32Z"/>
  <path class="cls-32" d="M571.27,589.78c-.22.3-.51.86-.95,1.26-2.6,2.3-5.3,4.51-7.84,6.87-1.68,1.55-2.52.42-3.61-.71-1.28-1.32-1.52-2.36.1-3.66,2.45-1.97,4.71-4.17,7.16-6.15,1.69-1.37,4.9,0,5.15,2.4Z"/>
  <path class="cls-81" d="M604.08,517.29c.02,1.65-.45,2.89-1.73,3.57-2.17,1.16-4.18,2.24-3.5,5.36.16.72-.81,1.97-1.87,1.95-.66-.01-1.44-.73-1.93-1.33-1.38-1.65-2.16-3.97-.61-5.42,2.33-2.19,5.09-3.8,5.21-7.51.02-.75.91-1.51,1.86-.94,1.68,1.01,2.39,2.65,2.57,4.32Z"/>
  <path class="cls-42" d="M615.67,357.86c-.34,141.57-114.12,257.64-257.72,257.95-145.03.31-258.14-116.66-258.97-256.65-.85-143.99,115.95-260.56,259.67-260.02,141.81.53,257.19,116.46,257.01,258.72Z"/>
  <path class="cls-133" d="M78.64,218.72c.07,2.6-4.26,12.08-5.59,12.24-1.37.16-11.24-5.39-11.31-6.37-.25-3.56,6.38-12.37,9.33-12.4,3.66-.04,7.47,3.25,7.57,6.53Z"/>
  <path class="cls-54" d="M355.63,47.44c0-2.99.34-6.04-.08-8.97-.7-4.94,1.73-5.32,5.68-4.94,12.52,1.19,18.15,8.54,14.81,19.69-2.01,6.73-13.89,11.89-19.91,8.7-1.37-.73-1.09-1.9-1.09-3.01-.03-3.82,0-7.64,0-11.47.2,0,.39,0,.59,0Z"/>
  <path class="cls-105" d="M592.76,171.32c-7.7.07-13.78-5.82-13.73-13.3.05-8.04,7.8-15.6,15.9-15.5,7.4.09,13.41,6.04,13.4,13.25-.02,8.44-7.06,15.47-15.56,15.55Z"/>
  <path class="cls-56" d="M54.06,257.02c4.56-.1,9.22,3.28,8.58,7.04-.62,3.65.07,9.81-4.25,10.03-4.19.21-10.82-.26-12.77-4.93-1.86-4.46,4.43-12.06,8.44-12.14Z"/>
  <path class="cls-77" d="M596.96,568.78c-1.17,2.46-2.44,5.52-5.52,6.04-1.2.2-4.23-2.18-3.6-3.95.89-2.51,3.08-4.88,6.03-5.44,1.87-.36,2.97,1.09,3.09,3.36Z"/>
  <path class="cls-121" d="M583.22,567.41c-1.69-1.14-4.28-2.57-3.87-3.69.77-2.14,2.54-4.38,5.31-4.63,1.72-.15,3.17,1.23,2.9,2.68-.45,2.44-2.26,4.24-4.35,5.63Z"/>
  <path class="cls-126" d="M404.68,662.83c.02-4.99,3.57-8.73,8.22-8.66,4.67.06,8.83,4.76,8.64,9.74-.18,4.59-3.79,8.24-8.23,8.32-5.1.09-8.65-3.77-8.63-9.4Z"/>
  <path class="cls-122" d="M116.2,545.2c4.52-.12,8.47,3.58,8.51,7.96.04,4.79-4.22,9.15-9.15,9.38-4.72.22-8.53-3.12-8.68-7.59-.17-5.06,4.19-9.62,9.32-9.75Z"/>
  <path class="cls-26" d="M176.09,617.04c-.02-4.85,4.83-9.8,9.54-9.73,4.26.06,8.12,4.22,7.99,8.61-.15,4.89-4.51,9.27-9.28,9.32-4.41.05-8.23-3.75-8.25-8.21Z"/>
  <path class="cls-20" d="M314.45,663.83c-.07,4.88-4.09,9.29-8.53,9.35-4.76.06-8.46-4-8.33-9.18.12-5.24,3.74-8.98,8.63-8.92,4.69.05,8.3,3.89,8.23,8.75Z"/>
  <path class="cls-15" d="M72.91,491.26c2.91-.18,5.31-.32,8.94-.54-2.41,2.55-3.83,4.96-5.89,5.83-.97.41-2.01-2.83-3.04-5.28Z"/>
  <path class="cls-6" d="M636.22,502.28c-1.24,2.4-2.1,4.08-3.35,6.51-1.81-2.27-3.32-4.15-5.21-6.51h8.57Z"/>
  <path class="cls-108" d="M229.11,643.85c2.49-2.23,4.27-3.83,6.86-6.16-.42,3.45.74,6.17-.93,8.17-.43.51-3.43-1.12-5.93-2.02Z"/>
  <path class="cls-109" d="M389.8,218.92c0,6.66.07,13.32-.05,19.98-.03,1.42,1.14,3.56-1.38,4.13-2.4.54-3.9-.38-5.07-2.75-3.38-6.89-7.65-13.24-12.61-19.11-4.55-5.38-9.62-10.11-16.12-13.14-3.68-1.72-7.46-2.72-11.54-2.67-8.9.11-15.04,4.07-17.48,11.34-3.01,8.97-.79,16.78,6.45,22.23,8.51,6.4,18.7,9.21,28.39,13.05,8.65,3.43,17.34,6.76,25.59,11.06,22.29,11.61,26.48,36.93,9.07,55.34-14.48,15.32-32.89,19.69-52.55,15.08-12.22-2.86-23.89-4.35-36.04-1.76-3.04.65-3.66-.27-3.63-3.14.12-13.32.03-26.64.1-39.97,0-1.2-1.01-3.11,1.62-3.33,2.15-.18,2.78.98,3.5,2.67,3.41,7.95,7.39,15.55,12.89,22.36,10.37,12.84,26.88,14.86,38.89,11.75,6.84-1.77,10.97-6.95,12.46-14.17,1.48-7.2-.92-12.79-6.4-17.19-6.97-5.6-15.33-8.5-23.55-11.63-9.61-3.66-19.32-7.06-28.28-12.23-25.06-14.48-26.81-47.01-3.44-64.3,13.79-10.2,29.33-10.74,45.29-7.8,6.99,1.29,13.83,3.49,20.63,5.59,2.77.86,4.63.6,6.21-1.9.7-1.11,1.84-1.92,2.68-2.95.91-1.12,2.06-.91,3.2-.76,1.88.24,1.12,1.78,1.13,2.73.08,7.16.04,14.32.04,21.48h-.02Z"/>
  <path class="cls-109" d="M279.14,286.28c0,6.83.05,13.66-.04,20.48-.02,1.25.96,3.24-1.51,3.5-1.89.2-3.43.02-4.45-2.15-3.2-6.79-7.34-13.04-12.13-18.8-6.7-8.05-14.21-14.95-25.21-16.5-9.04-1.27-16.73,2.33-20.1,9.52-3.93,8.37-1.99,17.37,5.32,23.38,6.26,5.13,13.84,7.79,21.29,10.62,11.33,4.3,22.73,8.45,33.48,14.09,21.16,11.11,26.11,34.14,10.9,52.74-14.49,17.71-33.93,21.34-55.46,17.75-1.15-.19-2.39-.24-3.39-.75-9.99-5.07-20.26-3.22-30.5-1.28-3.75.71-5.32.08-5.22-4.3.29-12.65.08-25.31.16-37.96,0-1.44-.93-3.52,1.64-4.03,2.36-.48,3.13,1.05,3.88,2.86,3.42,8.33,7.58,16.21,13.6,23.05,9.73,11.08,22.37,13.24,35.94,11.32,7.71-1.09,12.68-6.35,14.43-14.09,1.77-7.82-.88-14-7.4-18.65-9.2-6.57-19.99-9.63-30.29-13.74-7.55-3.01-15.13-5.92-22.03-10.32-21.29-13.57-24.6-39.53-7.34-58.1,11.23-12.08,25.52-15.34,41.34-14.25,10.22.7,19.9,3.71,29.57,6.68,3.19.98,5.17.81,7.07-2.08,1.12-1.69,2.6-4.11,5.1-3.19,2.72,1,1.24,3.77,1.3,5.71.19,6.16.07,12.32.07,18.48Z"/>
  <path class="cls-109" d="M523.62,263c0,9.85-.01,19.13,0,28.41.01,5.33.19,10.66.04,15.99-.04,1.31,1.51,3.51-1.33,3.97-2.55.41-2.93-1.36-3.37-3.26-1.28-5.52-3.23-10.8-5.97-15.76-7.94-14.37-23.11-22.09-38.38-19.15-12.13,2.33-19.62,10.59-24.97,21.03-6.82,13.33-7.91,27.66-6.46,42.27,1.07,10.8,3.28,21.34,8.42,31.06,5.89,11.14,14.21,19.17,27.17,21.23,8.22,1.31,15.85-.71,23.04-4.53,10.36-5.52,18.43-13.54,24.89-23.28.73-1.1,1.16-3.43,3.07-2.46,2.03,1.02.13,2.77-.33,3.81-7.88,17.92-19.7,32.17-39.07,38.03-24.22,7.33-62.17-2.66-76.75-39.14-13.85-34.66.36-75.88,32.68-92.92,17.41-9.18,35.46-10.76,53.76-2.86,5.19,2.24,9.83,3.03,14.99.39,2.3-1.18,4.97-1.67,8.54-2.81Z"/>
  <path class="cls-180" d="M563.91,414.47c-5.24,17.94-13.54,34.46-23.58,50.13-12.95,20.22-29.03,37.53-48.42,51.73-.88,1.91-2.49,2.98-4.37,3.72-.22.02-.44.03-.66.05-4.18,2.38-8.56,4.48-12.48,7.22-3.24,2.27-3.88-.48-5.16-2.01-1.05-1.26-.91-1.38,1.94-2.95,1.75-.96,3.44-2.04,5.26-2.81,4.67-1.97,8.09-4.42,6.6-10.47-.68-2.75.69-5.65,1.87-8.15,7.29-15.4,14.76-30.72,22.71-47.19,3.81,20.85-1.46,38.01-14.26,53.21.33.28.65.56.98.84,2.94-2.43,5.97-4.77,8.81-7.33,3.71-3.33,7.25-6.85,10.9-10.25,1.71-1.59,2.13-2.88,1.24-5.53-2.01-6.01-.31-12.18,1.19-18.13,3.45-13.67,7.05-27.3,10.59-40.95,3.71,5.52,5.61,16.15,4.58,26.57-.9,9.1-3.84,17.63-7.68,25.97,7.16-7.7,12.93-16.27,18.14-25.25.43-.74.97-1.41.27-2.22-5.2-5.97-3.72-13.24-3.53-20.06.37-12.89,1.38-25.77,2.14-38.93,9.78,9.64,12,34.37,5.69,51.25,2.8-2.43,3.76-6.02,5.28-9.22,1.71-3.59,3.2-7.3,4.7-10.99,1.42-3.49,2.72-7.03,4.07-10.55,2.21-.85,3.27-.1,3.18,2.28Z"/>
  <path class="cls-157" d="M462.49,533.12c-6.59,10.6-6.78,18.16-.66,26.11-.45,3.39-3.43,3.28-5.66,3.76-17.37,3.76-34.63,8.01-52.03,11.64-6.35,1.32-12.61,2.96-18.93,4.39-9.27,2.1-12.81-.27-14.67-9.63-.03-2.47-.21-4.96.13-7.41,1-7.09,5.93-12.46,12.92-13.8,3.55-.68,7.04-1.72,10.69-1.81.79.14,1.46.49,1.94,1.15,1.49,4.04,4.5,4.93,8.29,3.78,2.21-.67,4.38-1.29,6.7-1.39,3.45-.15,4.58-2.05,3.75-5.3-.05-1.08.13-2.08.95-2.87,12.63-3.87,25.63-6.09,38.5-8.92,2.09-.46,4.15-1.17,6.32-1.17.9,0,2.12-.14,1.76,1.47Z"/>
  <path class="cls-124" d="M222.33,508.17c-11.98-13.6-18.1-29.24-16.49-47.56.1-1.15.19-2.32.42-3.45.15-.76.55-1.47,1.14-3,7.09,17.02,16.59,32.09,22.94,48.66,1.08,2.81,2.26,5.94,1.28,8.73-1.27,3.62.66,4.69,3.11,5.99,4.54,2.42,9.03,4.94,13.56,7.38,1.24.67,3.24.79,1.61,3-1.07,1.45-1.31,3.93-4.28,2.16-5.84-3.48-11.86-6.67-17.8-9.98-.22-.02-.43-.05-.65-.06-1.89-.73-3.49-1.8-4.38-3.71-26.97-19.74-47.16-45.03-61.5-75.1,1.02-1.47,2.26-2.13,3.98-1.14.57,1.01,1.15,2.01,1.72,3.02.46.57,1.15.96,1.35,1.73.26-.61-.4-1.04-.32-1.61-3.55-11.96-5.04-24.04-2-36.36,1.37-5.54,3.7-10.63,7.59-16.57.3,6.36.47,11.5.8,16.64.7,10.97,1.76,21.92,1.41,32.94-.09,2.69.09,5.81-1.61,7.68-3.41,3.75-1.26,6.42.7,9.5,4.64,7.31,9.51,14.44,15.03,21.1.83.8,1.98,1.3,2.33,2.48.01-.04-.07.03,0-.02-.19-.94-1.08-1.49-1.2-2.42-5.72-11.27-9.05-23.08-8.16-35.86.41-5.81,1.5-11.41,4.55-17.52,4.21,16.83,8.36,32.75,12.08,48.78.91,3.93,1.38,8.32-.7,12.18-1.2,2.22.44,3.08,1.47,4.16,6.66,6.98,13.91,13.3,21.66,19.03.7,0,.92-.22.35-.79Z"/>
  <path class="cls-146" d="M320.71,473.22c2.04-1.94,3.94-4.05,6.13-5.79,9.03-7.18,19.1-7.01,29.72.47,1.64,1.15,2.65,2.34,5.06.81,14.9-9.47,21.95-8.85,34.99,2.64,1.33,1.37,3.15,2.49,2.53,4.87-2.92,3.08-7,2.14-10.33,2.18-22.8.28-45.62.96-68.42-.38-.33-.02-.64-.16-.96-.26-2.4-2.3-.16-3.31,1.28-4.54Z"/>
  <path class="cls-1" d="M375.86,581.21c-10.55-1.12-20.86-3.6-31.24-5.64-6.94-1.36-14.15-1.48-20.77-4.38-2.42-.07-4.72-.87-7.12-1.12-1.8-.68-2.69-2.05-2.95-3.89-.19-1.49.04-3.08-1.07-4.35-.26-.36-.46-.74-.63-1.15-.32-1.56-1.42-2.77-1.94-4.25-.14-1.06.02-2.01.92-2.73,10.87-.67,21.52.2,31.71,4.38,6.16,2.2,12.83,1.75,19.03,3.69.48.15.94.34,1.39.55,1.93.97,4.47.52,5.99,2.49.27.41.47.85.61,1.31.23.91.26,1.85.28,2.78.05,1.29-.05,2.62.91,3.7,1.27,3.07,4.74,4.9,4.88,8.61Z"/>
  <path class="cls-124" d="M165.28,440.09c-1.33.38-2.65.76-3.98,1.14-7.79-15.45-13.09-31.78-17.18-48.54-.27-1.1-.14-2.3-.19-3.45-.52-1.6,1.08-3.65-1.05-4.91-2.01-5.5-1.77-11.42-3.11-17.04-1.35-5.79-2.94-11.56-1.35-17.57.32-2.06.98-3.94,2.77-5.23,1.56,11.52,2.96,23.06,4.75,34.55.95,6.12,2.06,12.25,4.11,18.15,1.01,1.14.95,2.63,1.1,3.23.7-5.2-.19-11.22.64-17.18,1.96-11.08,5.49-21.39,15.13-30.26-3.24,17.2-3.77,33.51-8.17,49.22-.26.95-.5,2.28-1.19,2.67-7.19,4.14-2.58,9.5-1.09,13.98,2.42,7.25,5.82,14.18,8.8,21.24Z"/>
  <path class="cls-164" d="M227.83,520.11c-.31,3.76-2.88,5.34-6.1,6.19-6,1.59-11.89.49-17.64-1.21-15.02-4.43-27.9-12.59-40.63-23.76,21.78.24,40.24,7.24,58.21,16.07,2.41.25,4.3,1.63,6.27,2.84l-.11-.14Z"/>
  <path class="cls-164" d="M492.94,517.28c13.23-6.19,26.6-12.04,41.16-14.39,5.18-.84,10.38-1.8,17.21-1.45-3.95,3.14-6.78,5.57-9.79,7.74-11.83,8.55-24.41,15.45-39.13,17.61-3.71.55-7.36.31-10.85-.87-2.61-.88-4.59-2.69-4.67-5.81,0,0-.11.14-.11.14,1.92-1.27,3.9-2.43,6.17-2.97Z"/>
  <path class="cls-124" d="M138.68,458.19c7.18,1.39,13.21,4.04,19.02,7.16,12.5,6.72,23.64,15.3,34.06,24.9,3.27,3.01,1.27,4.06-1.35,5.01-4.05,1.46-7.91.06-11.56-1.45-9.67-4-17.7-10.44-25.05-17.71-5.41-5.35-10.5-11.02-15.11-17.91Z"/>
  <path class="cls-158" d="M517.81,537.55c-15.28,7.88-30.63,12.57-47.21,12.61-2.72,0-6.68.81-7.63-1.89-1.33-3.82.49-8.03,3.26-10.96,1.38-1.47,3.56-2.88,6.05-3.04,13.46-.85,26.89-1.38,40.17,1.8,1.56.37,3.1.85,5.36,1.48Z"/>
  <path class="cls-165" d="M576.2,458.13c-10.85,14.39-22.29,26.76-37.9,34.53-4.63,2.31-9.47,4.36-14.76,2.33-1.42-.54-4.03-1.51-1.57-3.79,15.08-13.97,31.2-26.34,51.23-32.53.62-.19,1.28-.24,3-.54Z"/>
  <path class="cls-104" d="M402.48,461.1c-.24,0-.47.04-.7.11-1.09.7-2.01,1.48-2.67,2.69-.83,1.54-1.93,2.35-2.92-.07-.74-1.8-2.67,1.55-3.45-.67.2-2.36,2.43-3.42,3.41-5.27.77-1.47,3.01-2.74.95-4.66-1.58-1.47-3.53-3.09-5.76-1.79-4.74,2.75-4.77.11-3.81-3.25.8-2.78-1.44-3.45-2.75-4.68-1.74-1.62-3.11-3.28-1.36-5.5,1.66-2.11,3.36-.38,4.75.57,2.11,1.45,3.91,2.04,6.28.33,2.39-1.72,3.86.25,3.13,2.13-1.51,3.9,1.26,4.88,3.41,6.47,1.53.91,2.89,1.07,3.82-.82,1.27-1.89.8-3.54-.26-5.46-1.03-1.87-.58-4.05,2.12-3.14,3.08,1.04,4.51-.32,6.26-2.34.96-1.1,1.85-3.64,4.27-1.63,2.02,1.68,1.54,3.31.28,5.19-1.48,2.21-2.53,4.34-.57,7.15.85,1.22.68,3.96-2.53,2.89-2.25-.75-3.87.13-5.03,2.05-.61,1.01-.36,1.91.54,2.61,1.69,1.33,3.5,3.14,5.74,1.83,4.15-2.44,4.93-.61,3.78,2.94-1,3.07,1.49,3.68,2.84,5.04,1.48,1.5,2.84,2.78,1.48,5.07-1.49,2.52-3.17.23-4.76.29-2.13-.83-4.3-1.64-6.43-.15-2.51,1.75-2.96-.21-3.62-1.89h.01c-1.44-2.77-.83-7.74-6.46-6.05Z"/>
  <path class="cls-165" d="M196.79,537.56c12.25-3.8,24.16-4.31,36.17-3.81,3.33.14,6.65.33,9.97.6,2.55.21,4.41.8,3.42,4.28-.76,2.68-.65,5.65.06,8.42.58,2.27.28,3.24-2.42,3.2-16.62-.19-31.98-4.87-47.2-12.69Z"/>
  <path class="cls-17" d="M122.97,409.93c12.24,6.26,21.65,15.79,30.14,26.29,4.07,5.03,7.78,10.38,11.49,15.69.71,1.02,2.68,2.17,1.2,3.7-1.11,1.14-2.71,1.45-4.57,1-4.37-1.06-7.88-3.49-11.12-6.38-12.43-11.06-20.53-25.1-27.15-40.3Z"/>
  <path class="cls-126" d="M592.13,409.29c-2.54,6.97-5.96,12.76-9.42,18.52-5.26,8.75-11.49,16.7-19.29,23.36-2.94,2.51-6.19,4.43-9.96,5.46-1.79.49-3.5.2-4.6-1.04-1.31-1.49.46-2.61,1.21-3.72,10.82-16.12,22.85-31.08,39.73-41.38.53-.32,1.1-.57,2.33-1.19Z"/>
  <path class="cls-115" d="M291.05,565.28c-10.1-.53-19.84-3.25-29.71-5.12-2.87-.54-6.11-1.92-6.49-5.83-1.06-3.93-3.93-7.5-2.35-11.95.51-.47,1.14-.75,1.81-.66,9.52,1.22,19.04,2.39,28.34,4.88,2.18,1.68,4.34,3.4,5.24,6.17.23,1.58.48,3.16,1.57,4.44.59,1.55,1.35,3.02,2.16,4.46.34,1.29.45,2.54-.57,3.61Z"/>
  <path class="cls-65" d="M232.02,478.19c8.89,11.79,18.68,22.65,27.8,34.06,1.55,1.94,2.36,4.18,2.39,6.4.03,3.19-3.52,1.78-5,3.1-3.92,3.48-6.48.76-9-1.86-11.18-11.6-16.89-25.38-16.19-41.69Z"/>
  <path class="cls-180" d="M564.68,398.85c2.99-14.46,5.29-29.01,7.47-43.62,2.16-14.44.98-28.24-2.44-42.23-2.43-9.96-3.86-20.16-5.41-30.35,8.3,12.75,14.1,26.44,12.48,42-1.21,11.63.02,23.25-1.41,36.27,1.9-2.91,1.03-5.2,2.41-6.68,2.66-.39,4.12,1.61,5.9,2.97-1.68,2.84-3.12,5.82-7.46,4.94-2.06-.42-1.3,1.76-1.37,2.71-.94,12.06-3.46,23.83-6.38,35.52-.16.63-.52,1.21-.78,1.82-2.12-.12-3.9-.55-3.01-3.36Z"/>
  <path class="cls-59" d="M286.93,553.19l-4.28-5.95c-2.76-2.02-5.04-4.46-6.65-7.5-.73-1.66-2.08-2.8-3.35-4.01-.77-.78-1.54-1.56-2.32-2.32-.91-.99-1.84-1.97-2.4-3.22-.36-1.72-2.27-3.04-1.34-5.1.73-.24,1.46-.48,2.19-.73,2.53.09,4.65,1.25,6.69,2.61,3.44,3.26,6.27,7.45,11.86,7.35,1.22-.02,2.35,1.06,1.91,2.39-1.1,3.28,1.11,5.33,2.51,7.68,3.37,5.66,8.08,10.64,8.66,17.68.14,1.65,2.04,2.11,2.69,3.47-.73,3.15-2.16,6.41,2.58,7.94,1.33.43,1.98,2.18,2.96,3.31,1.12,1.29,2.29,1.92,3.79.57,3.72-.26,4.99,2.3,5.99,5.19-.2,3.01-.69,5.95-2.25,8.6-2.22.66-3.54-1.24-5.31-1.88-4.97-2.24-8.89-5.72-11.98-10.17-2.33-5.09-4.87-10.09-5.74-15.74-.22-1.43-1.21-2.66-2.39-3.61-.45-.53-.71-1.14-.81-1.83-.35-1.99-2.08-3.11-3-4.75Z"/>
  <path class="cls-74" d="M449.65,527.14c3.78-.14,7.54-.01,11.2,1.06.74.75,2.48.46,2.31,2.12-.1.96-.87,1.28-1.75,1.41-15.45,2.21-30.3,7.34-45.79,9.31-1.66-.42-2.68-1.56-3.42-3.02-.64-1.32-.36-3.19-2.24-3.78-2.58-1.49-4.66-3.48-6.1-6.11-.5-1.77-2.17-1.7-3.49-2.19-1.13-.51-1.91-1.32-2.23-2.53-.31-1.89,1.02-3.13,1.82-4.59.87-1.29,2.1-1.98,3.61-2.23,3.46-.35,6.68.38,9.67,2.13,1.58,1.62,4.13.9,5.76,2.39,2.13,4.18,4.73,7.66,10.22,6.79,3.81.2,7.56,1.78,11.43.45,3.1.36,5.71-2.93,8.99-1.2Z"/>
  <path class="cls-57" d="M115.92,358.57c9.88,8.06,16.44,18.35,22,29.29,3.22,6.34,5.88,12.97,8.66,19.52.45,1.06,1.6,2.53.48,3.51-1.16,1.01-2.97.7-4.29.04-3.01-1.51-5.36-3.9-7.4-6.55-9.27-12.09-14.16-26.15-18.25-40.57-.49-1.72-.8-3.49-1.2-5.24Z"/>
  <path class="cls-4" d="M598.86,358.25c-4.3,17.18-9.52,33.61-20.76,47.44-.83,1.02-1.83,1.92-2.81,2.82-2.14,1.97-4.9,4.19-7.44,2.43-2.16-1.5.47-4.14,1.23-6.04,6.24-15.61,13.7-30.54,25.19-43.09,1.19-1.3,2.1-3.03,4.59-3.56Z"/>
  <path class="cls-7" d="M135.93,362.46c-3.92-2.07-5.99-5.71-7.67-9.51-6.51-14.67-8.44-30.28-8.96-46.23,10.09,13.87,14.54,29.92,17.75,46.45,1.92,2.21,1.26,4.95,1.44,7.48.12,1.63-.92,2.31-2.56,1.81Z"/>
  <path class="cls-65" d="M560.8,408.11c-6.04-3.02-6.03-9.2-6.95-14.49-2.28-13.07-3.93-26.24-5.95-40.14,6.06,4.76,9.23,10.75,11.73,17.14,3.87,9.87,3.68,20.18,2.97,30.51,0,2.48,1.04,5.24-1.81,6.98Z"/>
  <path class="cls-165" d="M583.69,357.22c-2.76.59-3.9-2.05-5.9-2.97,2.19-17.13,7.71-33.04,17.43-47.46-.87,17.51-2.1,34.9-11.53,50.43Z"/>
  <path class="cls-124" d="M482.76,477.55c1.33,18.17-11.62,44.25-22.61,45.35,4-6.62,5.44-13.62,4.76-21.03-.13-1.47.46-2.52,1.32-3.59,5.38-6.71,10.73-13.45,16.54-20.73Z"/>
  <path class="cls-103" d="M166.93,314.97c-4.96,13.16-8.51,25.88-13.84,37.96-1.28,2.9-2.68,5.75-5.25,7.72-1.19.91-2.92,1.81-3.01-.96-.5-14.44,5.66-36.65,22.11-44.72Z"/>
  <path class="cls-180" d="M547.52,314.58c8.65,4.67,13.64,11.27,17.12,19.07,3.4,7.63,5.16,15.7,5.16,24.08,0,1.18.9,2.88-.74,3.52-1.7.66-2.76-.84-3.64-1.97-1.21-1.56-2.4-3.2-3.22-4.99-5.8-12.57-9.34-25.95-14.68-39.72Z"/>
  <path class="cls-99" d="M373.85,134.13c.05-5.95,3.21-10.38,8.59-12.03,4.91-1.51,10.54.38,13.21,4.45,3.04,4.62,2.58,10.74-.77,15.41-.81,1.14-3.5,1.35-2.3,3.64,1.4,2.68,2.23-.55,3.42-.44.88.08,1.62.27,2.02,1.15.48,1.05.06,2.01-.46,2.82-1.82,2.85-5.96,3.07-8.59-.04-1.77-2.09-3.7-2.84-6.19-3.38-5.63-1.23-8.98-5.79-8.93-11.58Z"/>
  <path class="cls-87" d="M502.88,172.2c4.59-.06,10.11,4.44,10.9,9.84.86,5.84-3.4,12.32-9.38,14.19-.94.29-2.01.23-2.87.66-.83.41-.67,1.46-.51,2.24.23,1.14.95.33,1.41.2,1.58-.44,2.79.04,2.89,1.68.11,1.83-1.39,2.65-2.94,2.78-3.79.3-6.08-1.79-6.45-5.35-.25-2.37-1.12-3.85-2.86-5.36-3.95-3.45-4.87-8-2.73-12.64,2.16-4.68,5.6-8.24,12.52-8.24Z"/>
  <path class="cls-70" d="M375.86,581.21c-1.98-2.7-3.97-5.41-5.95-8.11-.93-1.92-.88-3.41,1.65-3.85.53,2.09.97,4.23,2.26,6.03,1.86,2.59,3.82,3.94,7.51,3.09,25.88-5.97,51.82-11.66,77.73-17.48,1.05-.23,2.43-.17,2.78-1.67,1.12,1.19,4.27.27,3.68,3.06-.5,2.36-2.88,1.59-4.59,1.96-7.91,1.7-15.78,3.56-23.69,5.28-18.71,4.06-37.44,8.03-56.14,12.15-1.92.42-3.57.51-5.24-.48Z"/>
  <path class="cls-99" d="M555.42,226.5c2.16,3.65,4.37,7.15,6.35,10.79,1.42,2.61,1.9,5.52-.21,7.95-1.94,2.23-4.49,2.79-7.13.95-1.1-.77-1.69-.3-2.41.58-1.57,1.92-3.27,3.73-4.88,5.62-.98,1.14-2.81,2.28.3,3.24.99.3.71,1.71.2,2.64-.71,1.3-1.93,1.19-3.06.87-3.82-1.08-4.81-5.66-2.12-9.45,2.14-3.01,5.88-4.95,6.53-10.06-3.58,2.23-7.48,2.78-8.6,7.59-1.86-3.06-3.54-5.82-5.26-8.65,5.07.02,17.85-7.56,20.29-12.07Z"/>
  <path class="cls-134" d="M249.99,175.54c-2.75,3.85-5.54,4.29-9.37,1.25-2.33-1.85-4.41-4.03-7.19-5.24-.55-.24-1.25-.15-2.58-.28,2.4,3.43,3.27,7.32,7.99,8.36-2.9,1.97-5.56,3.77-8.25,5.6-.05-5.49-8.79-18.1-13.74-19.32,4.13-2.67,7.89-5.3,11.86-7.59,2.38-1.38,5.07-1.7,7.45.25,2.07,1.69,2.48,4.03,1.46,6.3-.81,1.79-.55,2.64,1.12,3.49,1.01.51,1.94,1.3,2.71,2.15,2.24,2.43,4.49,4.18,7.42.95.59,1.31,1.6,2.5,1.12,4.1Z"/>
  <path class="cls-101" d="M266.24,511.25c-5.37-17.12-1.65-32.35,9.31-46.24,5.26-6.66,10.8-13.05,16.76-19.09,1.32-1.34,2.38-2.04,3.96-.21,7.61,8.79,15.31,17.5,21.04,27.72.28,1.15-.16,1.9-1.28,2.27-2.4-.02-3.33-1.94-4.27-3.58-2.95-5.14-6.78-9.59-10.62-14.04-.22-.24-.41-.51-.61-.76-6.76-8.3-4.26-9.32-13.04-.48-.81.82-1.38,1.82-2.04,2.75-2.16,2.49-4.56,4.8-6.13,7.76-2.4,3.37-4.81,6.71-6.79,10.37-4.28,7.93-5.46,16.18-3.55,24.96.41,1.9,1.11,3.84.64,5.87-.64,1.5-1.65,2.56-3.38,2.7Z"/>
  <path class="cls-68" d="M266.24,511.25c.66-.9,1.05-2.11,2.48-2.13,2.54,1.4,2.62,4.12,3.04,6.42.71,3.89,2.86,5.63,6.65,5.93,1.63.13,3.29.19,4.89.5,3.68.7,5.72-.41,5.56-4.42.15-.48.39-.91.7-1.3.42-.28.88-.35,1.37-.22,2.16,2.56.53,6.17,2.48,9.07,2.75-2.54,1.92-5.9,2.45-8.86.64-1.86.43-4.14,2.61-5.23.53.14.92.46,1.16.96.99,2.74.44,5.58.59,8.36,2.22,3.14,5.41,1.49,8.06,1.36,6.89-.35,6.95-.61,8.3-7.29.36-1.79.81-3.56,1.32-5.32.45-1.01,1.08-1.84,2.21-2.16,2.99.68,2.93,2.97,2.83,5.3-.74,4.58-1.76,9.09-3.38,13.46-1.64,2.54-4.21,2.87-6.9,2.92-5.18.48-10.42-.63-15.58.59-.87.25-1.76.32-2.65.39-6.66.25-13.31.39-19.62-2.32-2.1-.79-4.63-.67-6.04-2.88-.84-4.37-1.69-8.74-2.53-13.11Z"/>
  <path class="cls-161" d="M170.66,253.09c-6.29-5.24-12.23-10-20.34-12.03,2.33-3.67,4.73-7.91,7.57-11.84,3.41-4.71,9.17-5.37,14.61-2.07,5.57,3.38,7.7,9.17,5.29,14.38-.21.45-.47.88-.73,1.3-2.18,3.51-4.36,7.02-6.38,10.26Z"/>
  <path class="cls-181" d="M374.94,452.23c-1.75,5.48-6.43,6.71-11.23,7.64-8.38,1.63-18.22-2.54-20.88-8.73-.71-2.55.18-4.58,2.42-5.71,2.32-1.17,2.86,1.54,4.25,2.42.54.34,1,.89,1.72.43.27-.33.57-.59.9-.84,1.88-.15,3.85-1.41,5.56.35,1.16,1.2,1.92.78,2.71-.42.86-1.31,2.32-1.8,3.69-2.37.47-.06.86.09,1.19.43,1.3,1.22-.06,3.82,2.33,4.46.58-.2,1.14-.42,1.71-.64.52-.44-.14.05.44-.21,1.72-.76,2.48-4.03,4.51-2.9,2.21,1.23,1.06,3.96.68,6.11Z"/>
  <path class="cls-124" d="M141.19,344.49c-.67,1.29.42,3.63-2.22,3.76-1.19-4.88-.22-9.84-.55-14.75-.12-1.8.37-3.64-.39-5.39-1.91-15.99,2.68-30.36,10.95-43.8.92-.23,1.39,0,1.05,1.03-3.14,14.56-4.21,29.51-8.82,43.8-1.58,4.91.16,10.21-.01,15.34Z"/>
  <path class="cls-10" d="M364.85,412.25c.62.36,1.25.72,1.87,1.08,3.2,6.25,1.93,14.84-2.84,19.15-1.46.46-2.78.01-4.07-.64-2.86-4.42-6.94-8.09-8.25-13.47,0-3.11-.83-6.33,1.12-9.2.11-.31.21-.62.3-.93.92-1.57,1.14-3.46,2.28-4.92.85-1.08,1.24-3.11,3.23-2.26,1.71.74,1.36,2.44,1.08,3.91-.15.8-.2,1.64-.56,2.4.03.25.03.5,0,.75.21,3.83,4.38,2.06,5.84,4.13Z"/>
  <path class="cls-188" d="M549.24,220.96c.08,6.61-5.88,12.35-12.9,12.43-6.24.07-11.59-5.33-11.62-11.74-.04-6.59,6.06-12.52,12.85-12.5,6.18.02,11.6,5.5,11.67,11.8Z"/>
  <path class="cls-61" d="M350.47,144.13c4.28-4.48,4.52-19.77,1.24-23.88,4.34,0,8.49-.03,12.64,0q6.78.05,6.09,7.33c-.91-1.27-1.55-2.64-2.59-3.53-2.16-1.83-5.41-2.8-7.27-1.1-1.79,1.64-1.45,5.5-.3,7.53,1.36,2.42,3.92.24,6.23-1.09-.1,2.12-.18,3.72-.27,5.64-2.1-.94-4.66-3.48-6.11-.69-.93,1.79-1.64,5.81.51,6.91,3.96,2.02,7.59.11,10.05-4.27q.32,7.19-5.88,7.14c-4.3-.02-8.61,0-14.31,0Z"/>
  <path class="cls-66" d="M475.5,151.77c-1.2,2.2-1.93,4.59-4.2,6.84-.64-2.51-.2-4.86-1.43-6.8-1.27-2-2.77-3.7-5.18-2.33-2.44,1.39-1.92,3.59-.45,5.52,1.4,1.85,2.96,3.58,4.39,5.41,1.78,2.28,3.36,4.58,1.3,7.61-2.22,3.27-5.39,3.66-8.81,2.99-3.53-.7-6.06-3.52-8.56-5.62-1.81-1.53,1.27-4.42,2.85-7.87.2,2.5.37,3.81.39,5.13.04,2.21,1.1,3.81,2.91,4.9,1.65.99,3.37,1.43,4.96-.21,1.52-1.57.67-3.15-.24-4.48-1.4-2.04-3.13-3.86-4.61-5.85-1.97-2.65-2.46-5.46-.15-8.16,2.32-2.71,5.14-3.04,8.55-2.03,3.26.97,4.68,4.66,8.27,4.95Z"/>
  <path class="cls-145" d="M199.28,180.36c3.74-3.1,7.7-6.61,11.9-9.8,4.31-3.27,4.23,2.37,6.39,3.68-1.41-.29-2.81-.8-4.22-.82-2.9-.04-5.87,1.53-6.09,4.01-.21,2.32,2.44,5.35,4.61,5.86,2.94.69,3.49-2.38,3.27-5.51,1.74,1.95,3.12,3.51,5.1,5.73-3.13-.67-6.01-.41-6.24,2.08-.23,2.37,2.34,4.93,4.27,5.56,2.74.9,4.42-1.95,5.58-4.33.91-1.87.08-3.87-.05-6.05q5.47,5.65-.02,10.01c-3.09,2.48-6.12,5.04-8.98,7.4-4.25-6.88-8.54-13.37-15.5-17.83Z"/>
  <path class="cls-76" d="M485.91,181.39c-1.38,2.57-2.76,3.7-5.69,1.4-4.03-3.16-8.49-5.75-13.41-9.02,5.81-.44,6.66-5.21,8.88-8.45,2.19-3.2,6.01-5.92,4.52-11,3.66,2.42,7.11,4.68,10.54,6.96q5.61,3.73,1.19,10.03c0-1.82.11-3.04-.02-4.22-.36-3.3-3.02-5.58-5.49-5.57-2.45,0-4.28,3.74-4.47,5.87-.3,3.44,3.07,2.71,5.87,2.46-1.2,1.85-2.23,3.46-3.77,5.84-.06-3.21-1.53-5.79-3.57-5.37-2.54.52-3.78,3.71-4.51,6.12-.44,1.44,2.13,2.09,3.4,3.04,1.66,1.24,3.52.6,5.3.67,1.11-.28,1.42.22,1.22,1.23Z"/>
  <path class="cls-38" d="M250.75,171.17c.3-.58,1.01-1.33.85-1.72-2.85-6.71-5.2-13.73-10.78-18.9,3.48-1.74,7.62-3.23,11.09-5.68,4.64-3.28,6.64-1.44,8.15,3.38-2.29-.41-4.17-2.29-6.4-1.51-1.79.62-4.76.89-4.54,3.04.25,2.4,1.34,5.62,3.81,6.48,2.35.82,3.56-1.73,4.31-4.33,1.07,2.01,1.97,3.7,3.09,5.79-2.62-.51-5.82-1.26-6.29,1.16-.38,1.97,1.73,4.43,2.8,6.64.59,1.23,1.27.29,1.96.01,3.87-1.57,6.49-4.04,5.79-9.28,4.09,6.54,4.19,6.76-2.09,9.71-3.88,1.82-7.15,5.24-11.89,5.07l.14.13Z"/>
  <path class="cls-19" d="M312.29,140.56c2.35,2.4,4.17,5.53,8.15,4.86,1.72-.29,3.24-.69,3.55-2.79.31-2.06-.79-3.18-2.53-3.7-2.21-.66-4.48-1.14-6.73-1.65-3.6-.83-6.06-2.59-5.87-6.74.2-4.51,3.18-6.37,7-7.14,2.22-.45,4.61-.04,6.85-.43,1.44-.25,1.24.65,1.37,1.27.41,1.88.7,3.78,1.17,6.44-2.36-1.88-3.9-3.37-5.69-4.45-2.02-1.21-4.53-1.41-5.58,1.02-1.12,2.6.41,4.42,3.22,4.98,1.94.39,3.87.85,5.82,1.22,3.53.68,6.74,2.15,6.5,6.2-.23,3.97-2.91,6.57-6.91,7.48-2.73.62-5.62-.59-8.33.8-1.01.52-1.38-.44-1.48-1.34-.2-1.91-1.33-3.73-.53-6.03Z"/>
  <path class="cls-66" d="M346.53,127.95c-2.22-1.46-3.3-3.71-5.51-4.64-1.88-.78-4.08-1.32-5.11,1.11-.9,2.12-.05,3.92,2.26,4.74,1.87.66,3.76,1.29,5.66,1.87,3.71,1.13,7.03,2.56,6.18,7.46-.65,3.76-4.41,6.62-8.9,6.43-2.12-.09-4.19-1.03-6.39-.34-1.34.42-1.73-.47-1.74-1.62,0-1.66,0-3.32,0-5.49,2.23,2.11,3.46,5.24,6.87,5.33,2.14.06,4.21-.19,4.86-2.49.62-2.19-1-3.31-2.85-3.98-1.87-.67-3.77-1.26-5.65-1.91-3.56-1.23-6.45-3.09-5.74-7.49.7-4.3,3.85-5.85,7.76-6.56,2.47-.45,5.02.36,7.16.72,2.71.45.63,4.43,1.14,6.84Z"/>
  <path class="cls-76" d="M310.42,148.57c-1.7.57-2.92,1.27-4.17,1.34-2.18.13-5.89,3.94-5.76-2.51.03-1.73-1.68-4.62-5.69-3.59-4.09,1.06-4.47,3.99-3.64,6.26,1.77,4.78-1.08,4.67-4.31,5.06,4.53-5.71,2.19-12.65,3.99-18.77.7-2.37-1.04-6.04,1.97-7,3.59-1.15,3.98,3.16,5.7,5.08,3.98,4.45,5.84,10.7,11.91,14.13Z"/>
  <path class="cls-78" d="M343.1,443.17c.03-4.31.13-8.6-.92-12.86-.99-4.04,2.65-7.04,2.81-10.88.15-.3.3-.6.33-.92.18-2.07-.35-4.91,2.14-5.48,2.64-.6,3.02,2.41,4.09,4.13-.51,6.49-.06,12.76,4.46,18.02.12,2.45,0,4.81-2.45,6.25-2.34-.85-2.35-3.06-2.87-4.6-2.71,1.65-5.46,3.64-7.6,6.33Z"/>
  <path class="cls-44" d="M199.97,189.59c-4.11-1.2-7.79-1.55-9.63,2.31-1.95,4.08.4,7.32,3.23,10.12,1.54,1.52,3.31,2.72,5.42,3.39,5.5,1.75,7.84-.33,9.42-8.48,1.23,6.94-1.1,11.42-6.8,13.11-5.46,1.61-11.81-1.47-14.45-7.01-2.59-5.44-.86-11.68,3.8-15.05,3.37-2.44,6.32-4.33,9.01,1.63Z"/>
  <path class="cls-27" d="M449.65,527.14c-3.07.07-5.32,3.2-8.65,2.29-.13-.21-.26-.43-.39-.64.55-2.02,2.29-2.76,3.92-3.56,17.83-8.77,14.35-31.61,1.27-39.75-8.78-5.47-17.85-5.55-27.28-2.11-1.92.7-3.77,2.48-6.01.75-.22-.52-.13-.98.25-1.39,18.08-11.67,41.77-3.14,46.46,16.91,2.28,9.75-.16,18.36-7.74,25.26-.71.64-1.23,1.49-1.84,2.24Z"/>
  <path class="cls-171" d="M327.79,453.38c-11.14-1.02-14.85-3.76-24.11-17.85,1.8-1.93,7.11,2.67,6.61-3.57.98-.26,2.3-.56,2.72.41,3.04,7.05,9.32,11.53,13.68,17.52.74,1.02,1.95,1.94,1.1,3.48Z"/>
  <path class="cls-58" d="M190.88,213.3c3.11,4.75,2.77,8.44-1.15,12.28-3.6,3.54-7.65,3.78-12.06.55-2.4-1.76-4.7-3.68-6.97-5.6-1.65-1.4-3.3-2.59-6.63-.9,1.3-1.85,1.8-2.64,2.38-3.37,1.54-1.91,3.12-3.8,4.83-5.88.82,4.43,10.74,12.99,14.8,13.11,4.63.13,5.97-3.11,3.76-9.12-.34-1.02.11-1.26,1.03-1.07Z"/>
  <path class="cls-67" d="M398.91,475.29c-.77-1.32-1.53-2.63-2.3-3.95,5.16,1.88,7.18,6.23,8.1,11.05.46,2.41,1.61,2.91,3.55,3.03-.02,1.8-1.34,3.21-1.49,4.98-.28,1.08-.58,2.15-.8,3.25-.36,1.57-.84,3.11-1.39,4.62-1.56,3.1-2.91,6.31-4.83,9.22-1.95,2.74-3.64,5.68-6.02,8.11-1.33,1.72-2.57,3.52-4.18,5-1.08,1.01-2.1,2.11-3.31,2.99-.35.23-.72.43-1.1.61-.98.39-1.72,1.24-2.76,1.53-1.02.07-1.73-.33-2.03-1.35.06-2.65,2.31-3.83,3.72-5.59,1.59-1.55,2.62-3.57,4.21-5.12,1.61-1.5,3.07-3.14,4.19-5.04,3.37-4.08,6.1-8.51,7.61-13.62.71-1.99,1.45-3.97,1.42-6.13.95-4.87-1.74-9.05-2.59-13.58Z"/>
  <path class="cls-94" d="M522.82,212.29c-5.28,2.31-8.99,1.44-12.02-2.83-3.1-4.36-2.81-7.87,1.12-11.97,1.84-1.91,3.85-3.65,5.76-5.49,1.72-1.65,4.03-2.96,3.78-6.09,2.12,2.27,4.24,4.55,6.23,6.69-6.22,2.52-10.18,7.29-13.91,12.25-1.17,1.56-.96,3.44.32,5.06,2.16,2.75,4.93,2.12,7.71,1.37,1.04-.37,1.28.08,1.02,1.02Z"/>
  <path class="cls-100" d="M413.83,150.22c-8.48,2-14.04-3.35-12.07-11.63q2.48-10.39.96-14.22c3.4.8,6.53,1.53,9.53,2.23-3.87,5.19-4.68,11.41-5.31,17.51-.34,3.3,2.41,4.77,5.57,5.01,1.09-.41,1.44.06,1.31,1.1Z"/>
  <path class="cls-94" d="M429.99,131.59c2.57.89,5.63,1.95,8.25,2.86-5.1,6.36-6.14,14.07-8.52,21.88-2.2.19-4.72-2.1-7.73-2.21,5.01-6.92,7.24-14.37,8-22.53Z"/>
  <path class="cls-5" d="M378.74,427.31c-.37,4.49-3.89,7.68-4.91,11.89-2.2,2.36-4.67-1.11-6.92.33-.4-.31-.69-.69-.89-1.15-.49-1.51-.48-3.06-.38-4.62,2.7-4.78,2.88-9.9,2.34-15.22-.12-1.23-.84-4.84,2.76-2.26-.01.34.06.65.22.95,1.9,3.9,6.15,5.98,7.79,10.08Z"/>
  <path class="cls-16" d="M314.65,431.17c.12-.66.23-1.32.35-1.99.88-.69,1.08-2.3,2.69-2.01,3.29,3.69,6.46,7.5,9.9,11.04,3.38,3.48,3.2,7.2,1.42,11.22-1.82.99-2.7-.37-3.71-1.46-3.49-3.76-6.8-7.68-10.21-11.51-1.61-1.8-1.82-3.41-.44-5.31Z"/>
  <path class="cls-62" d="M370.73,416.29c-.74-.3-1.63-.83-1.7.57-.08,1.62-.5,3.48.1,4.85,2.08,4.74-.6,8.37-2.33,12.27-.64,1.77-.79,3.55.02,5.32h-.04c3.82,4.09,4.22,6.45,1.83,10.78l-.78,1.12c-2.92-.92-1.39-4.11-2.93-5.74l-.19-.21c-5.74-5.26-6.27-9.08-1.81-13.03,4.34-3.58,4.14-8.57,4.11-13.48-.01-1.8-.18-3.59-.28-5.39,2.1-.04,4.72-.8,4,2.96Z"/>
  <path class="cls-149" d="M263.65,566.5c-9.04.29-17.82-.26-26.94-2.51,3.47-3.06,7.32-4.49,10.99-6.23.93-.44,1.89-.94,2.63.17,3.15,4.79,7.43,7.82,13.33,8.57Z"/>
  <path class="cls-47" d="M414.99,540.15c9.84-1.5,19.43-3.96,29.08-6.39,5-1.26,10.31-3.08,15.8-2.66,3.46.26,2.59-1.27.99-2.9,2,.02,4.29.13,4.72,2.41.33,1.74-1.79,1.96-3.09,2.51-8.41.23-16.32,3.13-24.48,4.68-7.32,1.39-14.6,2.97-21.9,4.47-1.88.09-1.86-.83-1.12-2.12Z"/>
  <path class="cls-107" d="M322.02,511.95c-.03-1.92.09-3.9-2.15-4.84-.86-.11-1.76-.45-2.09-1.17-3.94-8.34-8.37-16.61-5.07-26.35.87-1.56,1.15-3.56,3.17-4.26.47-.64.95-1.27,1.42-1.9,1.13-.07,2.27-.14,3.4-.21-.68,1.3-1.36,2.61-2.04,3.91.35,1.44-.37,2.66-.81,3.94-.13.43-.29.85-.45,1.27-.45,3.14-.54,6.27.19,9.38.16.43.28.86.4,1.3.75,2.89,2.32,5.41,3.65,8.03.77,2.84,3.58,4.73,3.7,7.88-.58,1.25-1.35,2.36-2.28,3.37-.47.23-.82.11-1.05-.37Z"/>
  <path class="cls-160" d="M343.1,443.17c.83-2.58,1.07-4.97,4.75-6.02,4.38-1.25,5.09.21,5,3.79,1.07,2.92-1.94,5.31-1.05,8.2.02.62,1.23,1.72-.34,1.67-.79-.02-1.56-1.12-2.31-1.75q-4.25-3.56-6.31,2.08c-2.06-2.73.1-5.32.27-7.97Z"/>
  <path class="cls-98" d="M315.81,590.74c.55-2.91,1.11-5.82,1.66-8.73-.53-3.83-.74-7.6,1.82-10.91,2.46-1.3,3.43.53,4.5,2.16.8,3.08-2.66,5.68-1,8.85-1.56,2.38,0,5.59-2.08,7.83l-.11.12c-1.47,1.08-2.78,3.35-4.79.68Z"/>
  <path class="cls-84" d="M266.58,525.09c-.32,2.12,2.7,2.76,2.2,4.96-.45.7-1.15.85-1.91.84-8.94-1.43-10.96-.06-12.8,8.78-.2.98-.39,1.93-1.22,2.59-1.2,4.33,2.32,7.87,2.01,12.06-1.92-2.29-3.16-4.84-3.02-7.92-.95-1.61-.01-3.47-.71-5.11.75-6.91,2.2-13.4,10.12-15.6,1.7-.47,3.55-.41,5.33-.6Z"/>
  <path class="cls-168" d="M368.61,450.06c1.52-3.95-.86-7.25-1.83-10.78,2.32-3.16,4.7.18,7.05-.07.38,4.34,4.09,8.4,1.11,13.02-.1-1.77-.21-3.54-.33-5.49-2.73.17-2.5,5.21-6.01,3.32Z"/>
  <path class="cls-140" d="M314.65,431.17c.06,1.1-.33,2.63.24,3.24,4.75,4.97,8.33,11.05,14.12,15.04.65.85,1.9,1.27,1.91,2.6-.7,1.29-1.72,1.84-3.18,1.36,0,0,.04-.02.04-.02-4.58-5.45-8.89-11.16-13.9-16.18-1.65-1.65-.07-5.24-3.61-5.23,1.2-1.7,2.94-.39,4.37-.8Z"/>
  <path class="cls-136" d="M413.83,150.22c-.44-.37-.87-.73-1.31-1.1,5.78-3.17,9.65-15.04,6.44-20.71,2.24.47,4.22.88,6.78,1.42-5.04,3.36-4.06,8.72-5.68,13.03-1.25,3.3-2.15,6.58-6.23,7.35Z"/>
  <path class="cls-4" d="M564.68,398.85c-.22,2.22,2.44,1.86,3.01,3.36-.74,4.24-1.78,8.4-3.78,12.26-.56-1.46-1.62-2.22-3.18-2.27.07-.62.14-1.24.21-1.86.97-2.73.72-5.86,2.68-8.27l1.06-3.21Z"/>
  <path class="cls-35" d="M350.69,417.36c-1.66-.73-1.64-2.69-2.63-4.01-2.65,1.44-1.28,4.53-3.07,6.08-.05-.82-.16-1.65-.13-2.47.22-6.76,1.05-7.57,7.82-7.78.05,3.35.09,6.7.14,10.05-1.83.66-1.06-1.66-2.13-1.87Z"/>
  <path class="cls-111" d="M291.01,559.15c1.81.35,3.43,1.86,3.45,3.15.1,5.42,2.71,9.97,4.4,14.84.2.59.02,1.31.02,1.97-3.1-2.56-3.86-6.39-5.34-9.83-.63-1.46-.56-3.35-2.48-4.01-.09-1.33-.19-2.67-.28-4-.5-.77-.43-1.48.24-2.13Z"/>
  <path class="cls-31" d="M359.02,407.37c-.63-1.78.53-3.86-.86-5.63-3.2,1.07-2.58,5.09-5.18,6.5-.11-5.41,5.19-8.76,4.96-14.45,3.92,3.77,4.15,8.23,1.08,13.58Z"/>
  <path class="cls-72" d="M138.03,328.12c1.75,4.67.1,9.48.56,14.21.19,1.97.26,3.95.39,5.93-.68,6.38.88,12.67.79,19.03-.78-2.01-1.46-4.09-3.84-4.83,2.76.03,2.03-2,1.92-3.47-.14-1.95-.52-3.88-.8-5.82,1.65-5.48.29-11.09.69-16.63.2-2.8.2-5.62.29-8.42Z"/>
  <path class="cls-112" d="M522.82,212.29c-.34-.34-.68-.68-1.02-1.02,3.86-4.1,9.26-6.87,11.44-12.91,1.24,1.18,2.59,2.46,4.27,4.05-7.17.44-9.05,7.83-14.69,9.88Z"/>
  <path class="cls-102" d="M190.88,213.3c-.34.36-.68.71-1.03,1.07-4.53-3.31-8-8.21-14.01-9.46.86-1.83,2.08-3.33,3.71-4.6.77,7.04,8.55,7.82,11.33,12.98Z"/>
  <path class="cls-156" d="M327.75,453.4c1.06-.45,2.12-.91,3.18-1.36,1.48,1.77,2.98,3.53,4.43,5.33.57.71,1.76,1.48.78,2.45-.87.86-2.3.93-3.15-.04-1.81-2.06-4.46-3.46-5.23-6.38Z"/>
  <path class="cls-166" d="M402.48,461.1c1.99-2.86,3.86-.91,5.78.12,3.12,1.67.92,3.9.67,5.93-4.05,0-2.99-5.44-6.46-6.06Z"/>
  <path class="cls-43" d="M151.79,383.23c.11,7.55-.64,15.13.74,22.71-1.64-2.71-2.28-5.66-2.49-8.75,1.71-2.78.33-5.83.78-8.72.27-1.75-.46-3.69.97-5.23Z"/>
  <path class="cls-146" d="M392.74,463.17c1.54.72,4.28-2.93,4.67,1.6,1.76-1.13,1.49-4.36,4.37-3.55-.8,1.2-1.56,2.42-2.4,3.58-.81,1.12-1.43,3.15-3.14,2.37-1.55-.71-3.87-1.36-3.5-4Z"/>
  <path class="cls-132" d="M315.81,590.74c1.77.99,3.25-.06,4.79-.68-.33,1.43.18,3.22-2.44,3.22-3.29,0-6.14-.33-7.31-3.99,1.86-.22,3.51.29,4.96,1.46Z"/>
  <path class="cls-62" d="M378.74,427.31c-2.8-3.2-6.94-5.37-7.79-10.08,3.2,2.89,7.8,4.7,7.79,10.08Z"/>
  <path class="cls-21" d="M471.19,559.69c2.55,1.43,4.5,2.52,6.76,3.78q-7.21,2.91-6.76-3.78Z"/>
  <path class="cls-166" d="M408.92,467.15c1.08,1.05,1.85,2.73,3.83,1.02,2.33-2.02,4.42-1,6.22,1.02-1.92.3-4.05-.57-5.78.71-3.97,2.94-4.45.66-4.27-2.75Z"/>
  <path class="cls-116" d="M405.83,490.11c-.62-2.31,1.5-3.19,2.44-4.7,1.5-.9,3-1.8,4.51-2.69.04.53.08,1.05.11,1.58-1.12,3.43-3.26,5.63-7.06,5.81Z"/>
  <path class="cls-124" d="M142.88,384.33c.13-.91-.25-2.26.95-2.46,1.04-.18,1.11,1.02,1.04,1.8-.16,1.88.76,3.96-.94,5.58-1.33-1.43-1.08-3.19-1.05-4.91Z"/>
  <path class="cls-85" d="M323.8,573.25c-1.32-.73-2.15-2.72-4.18-1.65-1.86.3-3.62.48-2.75-2.37,2.54-.09,5.18-.55,6.98,1.98-.02.68-.03,1.37-.05,2.05Z"/>
  <path class="cls-132" d="M320.71,589.93c.94-2.55-.77-5.8,2.08-7.83-.56,2.65,1.8,6.07-2.08,7.83Z"/>
  <path class="cls-33" d="M563.62,402.07c-.79,2.79-.82,5.83-2.68,8.27-.05-.74-.09-1.49-.14-2.23.6-2.33,1.21-4.65,1.81-6.98.34.31.68.63,1.01.94Z"/>
  <path class="cls-83" d="M317.69,427.18c-.81.79-1.11,2.25-2.69,2.01-.05-1.4-.88-3.21.46-4.02.87-.52,1.84.88,2.23,2.01Z"/>
  <path class="cls-22" d="M227.94,520.25c-2.52,0-4.31-1.61-6.27-2.84.38-.36.75-.71,1.13-1.07,1.88,1.08,3.94,1.94,5.14,3.91Z"/>
  <path class="cls-137" d="M492.94,517.28c-1.82,1.48-3.67,2.89-6.17,2.97,1.14-2.05,3.26-2.83,5.13-3.91.34.31.69.63,1.03.94Z"/>
  <path class="cls-31" d="M364.85,412.25c-1.97-1.35-6.25.59-5.84-4.13,1.26,2.34,4.79,1.48,5.84,4.13Z"/>
  <path class="cls-2" d="M404.82,446.7c0,1.17-.08,2.29-1.59,2.46-1.24.14-2.27-.04-2.23-1.65,1.27-.27,2.55-.55,3.82-.82Z"/>
  <path class="cls-38" d="M249.99,175.54c-.34-1.37-2.46-2.26-1.12-4.1.63-.08,1.26-.17,1.89-.26,0,0-.13-.12-.14-.13.22,1.55.83,3.16-.63,4.49Z"/>
  <path class="cls-39" d="M168.02,443.24c1.37,1.05,1.7,2.47,1.68,4.35-1.62-1.31-2.24-2.85-2.71-4.48.34.04.69.08,1.03.12Z"/>
  <path class="cls-170" d="M150.03,285.35c-.35-.34-.7-.69-1.05-1.03.15-1.09.57-1.99,1.67-2.48.62,1.36.23,2.47-.62,3.51Z"/>
  <path class="cls-88" d="M485.91,181.39c-.41-.41-.81-.82-1.22-1.23.9-.63,1.8-1.26,2.99-2.08.27,1.9-.77,2.6-1.77,3.32Z"/>
  <path class="cls-115" d="M251.13,541.29c1.29,1.56.58,3.39.71,5.11-1.29-1.56-.95-3.34-.71-5.11Z"/>
  <path class="cls-24" d="M192,481.12c-.68-.99-1.37-1.97-2.05-2.96.38.01.76.02,1.15.03,1.51.47,1.44,2.11,2.25,3.09-.5.36-.94.3-1.34-.16Z"/>
  <path class="cls-113" d="M489.41,510.97c.94-1.42,1.6-3.18,4.2-3.43-.78,2.44-2.4,3.04-4.2,3.43Z"/>
  <path class="cls-186" d="M382.63,525.18c.25-1.25,1.01-1.81,2.28-1.69,1.76,2.33,4.28,2.65,6.96,2.8,1.91.1,4.36.09,2.88,3.3-.88,3.11-1.75,5.88,3.14,6.65,2.78.44,4.41,3.34,6.31,5.42,1.61,1.78,3.6,3.47,1.45,6.13-3.19,1.64-6.39,2.78-9.73.38-.37-.36-.73-.72-1.1-1.08-.46-.47-.88-.97-1.16-1.57-1.02-2.21-3.13-2.67-5.2-3.19-.65-.15-1.28-.38-1.87-.7-1.27-1.1-2.81-1.2-4.39-1.2-1.71-.1-3.32-.42-4.23-2.11-.47-1.73-2.27-1.98-3.39-3-.37-.63-.42-1.3-.2-1.99,2.54-2.93,4.8-6.14,8.23-8.17Z"/>
  <path class="cls-117" d="M393.91,529.19c1.04-2.85-1.11-1.27-2.08-1.67-2.47-1.01-7.36,1.93-6.91-4.03.19-.22.43-.32.72-.31,1.65-.88,3.52-1.3,5.02-2.48.66-.32,1.36-.48,2.09-.51.72,0,1.42.15,2.08.44,1.27.94,2.91,1.35,3.89,2.7l2.07,1.93c1.02,1.28,3.05.55,3.99,2,1.69,2.34,3.73,4.33,6.01,6.1,1.43.93.77,2.89,1.95,3.95.75.94,1.51,1.88,2.26,2.82-.26,1.04.24,1.68,1.12,2.12-.04.98-.09,1.96-.13,2.94-2.93,3.12-6.35,3.59-10.16,1.83.66-2.61-1.88-3.39-2.89-5.05.98-1.14.48-2.08-.41-2.96-1.16-1.15-2.79-2.09-3.28-3.57-.82-2.46-2.03-3.96-4.72-4.26-.68-.07-1.14-1.1-.62-2.01Z"/>
  <path class="cls-183" d="M405.82,547.04c3.43-.39,6.89-.56,10.16-1.83,2.16,3.57.13,5.51-3.01,5.8-3.32.3-6.39,1.13-9.56,1.96-4.21,1.1-7.85-1.45-7.48-4.79,3.4.53,6.64-.41,9.9-1.14Z"/>
  <path class="cls-34" d="M394.75,545.26c.02.62.05,1.23.07,1.85-2.41.54-4.83,1.09-7.24,1.63-12.93,2.92-16.19,7.09-16.04,20.51-1.52.87-1.79,2.27-1.65,3.85-1.56-1.02-.86-2.59-.96-3.97.48-.97,1-1.94,0-2.91-.05-.36-.1-.71-.15-1.07-2.14-3.2.18-5.82,1.44-8.29,3.07-6.06,6.89-11.43,14.88-11.15,2,.07,3.86-.89,5.78-1.37,1.43-.29,2.77-.16,3.87.93Z"/>
  <path class="cls-154" d="M222.33,508.17c1.49.34,2.26,1.45,3.15,2.87-1.91.2-2.63-1.07-3.5-2.08.12-.26.23-.53.35-.79Z"/>
  <path class="cls-53" d="M192,481.12c.45.05.89.11,1.34.16.77.56,2.01,1.4.85,2.08-.67.4-1.78-1.11-2.19-2.24Z"/>
  <path class="cls-150" d="M316.93,481.11c-.1-1.62.7-2.85,1.74-3.98,17.57.03,35.15.28,52.72,0,7.55-.12,15.27,1.65,22.69-1.4,1.47-.6,3.47,2.76,4.84-.44,3.63,3.99,4.67,8.67,3.73,13.88-3.35-1.67-6.87-1.56-10.54-1.52-22.14.19-44.28.14-66.42.06-6.25-.02-7.08-.77-8.76-6.59Z"/>
  <path class="cls-93" d="M342.87,559.19c-10.27-3.95-21.17-3.86-31.87-5-.37-.44-.43-.91-.17-1.42.62-1.01,1.44-1.88,2.56-2.21,8.98-2.66,17.45-6.68,26.27-9.77.64-.22,1.29-.18,1.94-.03,6.06,2.34,12.43,3.31,18.81,4.01,3.97.44,7.79,1.47,11.68,2.17,3.47.63,3.68,2.48,1.36,4.69-2.38,2.27-3.86,5.01-4.46,8.12-.73,3.81-2.57,5-6.13,3.44h0c-2.92-2.28-6.6-1.75-9.9-2.34-3.34-.6-6.71-1.23-10.1-1.65Z"/>
  <path class="cls-82" d="M310.52,553.47c.12.27.27.51.47.73-.01.97-.02,1.94-.03,2.91,1.2,1.11.57,3.04,1.85,4.11h.03c1.38,1.02.72,2.99,1.91,4.1.03,1.66.38,3.15,2.11,3.89-.08,1.95,1.52,1.95,2.76,2.37-.71,3.47-1.43,6.95-2.14,10.42-1.32-1.53-2.1-3.75-4.67-3.69-.89.25-1.63-.09-2.28-.65-3.65-3.13-4.24-8.29-7.7-11.55-2.55-.97-4.33-2.1-4.1-5.57.2-3.05-1.72-5.84-3.44-8.42-2.47-3.7-4.8-7.52-7.58-10.98-1.79-2.23.58-3.61.48-5.74-6.69.89-10.28-3.24-13.37-8.16,6.58.36,13.17.71,19.75,1.07,2.73,3.19,3.9,7.56,7.6,10.01,2.53,1.58,3.45,4.41,5.17,6.63,1.13,2.81,2.74,5.45,3.19,8.52Z"/>
  <path class="cls-178" d="M362.86,563.19c3.01.44,4.92-.06,4.96-3.88.05-4.47,3.68-7.18,6.77-10.64-10.65-1.88-20.8-3.68-30.96-5.47-.96-.17-2.73.56-1.79-1.66,1.91-3.38,5.29-3.65,8.6-4.1,2.42.1,4.22,1.38,5.77,3.11,2.38,3.8,4.74,1.92,7.08-.05,3.59-2.71,6.13-7.07,11.33-7.25.11.63.21,1.25.32,1.88.83,1.51,3.01.64,3.82,2.18.63,2.19,2.58,1.56,4.07,1.9,1.03,1.35,2.97.7,4.08,1.87.6.1,1.19.2,1.79.3,1.08,1.04,3.27,1.35,2.43,3.66-1.62,1.64-3.82,2.24-5.86,2.02-5.34-.58-8.59,2.31-11.43,6.11-2.67,3.57-4.55,7.49-5.07,11.97-1.7-1.49-4.34-.12-5.93-1.96Z"/>
  <path class="cls-178" d="M342.87,559.19c6.05-.12,11.87,1.71,17.86,2.17,1.03.08,1.7.9,2.14,1.83-6.54-1.98-13.61-1.29-20-4Z"/>
  <path class="cls-135" d="M312.81,561.22c-2.74-.42-1.76-2.51-1.85-4.11,2.56.5,1.82,2.48,1.85,4.11Z"/>
  <path class="cls-148" d="M314.75,565.32c-2.49-.5-1.84-2.47-1.91-4.1,2.77.37,1.9,2.44,1.91,4.1Z"/>
  <path class="cls-70" d="M368.94,566.22c.47-.12,1.33-.38,1.34-.34.51,1.46-.43,2.36-1.34,3.25,0-.97,0-1.94,0-2.91Z"/>
  <path class="cls-127" d="M405.75,452.63c-.25,1.56-1.42,2.2-2.77,2.25-1.37.06-2.07-1.01-2.01-2.28.07-1.54,1.07-2.38,2.62-2.28,1.34.09,1.93,1.05,2.16,2.3Z"/>
  <path class="cls-18" d="M252.85,542.27c.19-2.26-.33-4.59.58-6.78,2.78-6.65,6.01-7.92,13.55-5.36,1.58,1.97-.24,3.51-1.1,5.25,2.29-.12,2.43-3.83,5.09-2.24,1.2.06,1.9.66,2.04,1.88.73,1.81,1.82,3.31,3.65,4.17,1.89,2.76,4.66,4.88,5.99,8.05-10-1.26-19.96-2.77-29.8-4.97Z"/>
  <path class="cls-63" d="M286.93,553.19c2.12.58,3.49,1.84,3.73,4.12-.63.52-1.29.49-1.96.09-2.55-.58-1.73-2.58-1.78-4.21Z"/>
  <path class="cls-139" d="M288.7,557.4c.65-.03,1.31-.06,1.96-.09.11.61.23,1.23.34,1.84-.08.71-.16,1.42-.23,2.13-2.43-.36-1.77-2.38-2.07-3.87Z"/>
  <path class="cls-95" d="M302.82,566.12c1.39,3.59,4.45.04,5.69,1.16,1.47,1.33-3.52,3.21-.49,5.57,1.92,1.49,2.57,4.18,4.78,5.47-1.55,2.87-2.58,2.38-4.57,0-1.87-2.23-2.61-7.6-8.26-3.55.39-2.86,2.73-4.58.7-6.97-.9-1.06.94-1.65,2.14-1.68Z"/>
  <path class="cls-9" d="M270.97,533.13c-2.7.61-2.8,6.67-7.46,3.34.33-2.48,4-3.35,3.47-6.35.6-.02,1.2-.05,1.8-.07.69,1.06,2.31,1.45,2.19,3.08Z"/>
  <path class="cls-71" d="M276.66,539.18c-3.32.45-4.21-1.23-3.65-4.17,1.93.76,3.25,2.07,3.65,4.17Z"/>
  <path class="cls-172" d="M412.83,519.28c-3.08-.64-6.16-1.29-9.23-1.93-2.72-7.24-.04-13.75,3.32-19.83,7.18-12.97,25.78-18.04,38.29-8.59,3.76,3.22,6.43,7.13,7.65,11.97.46,3.32.52,6.64-.04,9.97-3.61,9.72-9.55,13.71-18.71,12.56-5.36-.67-10.04-5.09-11.18-10.57-.93-4.47,1.13-8.59,5.47-10.97,1.77.55,2.27,2.3,3.32,3.54,1.8,2.14,4.01,2.97,6.64,1.97,2.37-.9,3.66-2.83,3.86-5.33.22-2.68-1.3-4.47-3.61-5.38-11.7-4.59-20.72,3.27-20.48,12.06.08,2.81-.23,5.64.51,8.41.12.77.08,1.53-.19,2.27-1.93,1.88-3.77.72-5.63-.15Z"/>
  <path class="cls-92" d="M444.83,490.21c-8.33-5.8-17.17-6.45-26.18-1.99-9.7,4.8-13.73,13.37-14.77,23.68-.18,1.81-.2,3.63-.29,5.45-.92.58-1.83,1.15-2.75,1.72-1.87,1.29-3.57,3.06-6.2,2.24-.66-.04-1.32-.09-1.98-.13-.83-3.16,1.81-3.56,3.66-4.26,2.64-1.01,4.08-2.63,4.32-5.48.37-4.5,2.17-8.69,2.95-13.11.56-1.71,1.11-3.42,1.67-5.14,2.45-.61,4.32-2.09,6.24-3.69,8.61-7.18,18.24-9.65,29.01-5.49,2.26.87,4.72,1.82,5.01,4.86-.08.52-.31.97-.7,1.33Z"/>
  <path class="cls-147" d="M428.89,529.15c-6.01.13-9.15-2.23-10.24-7.71.16-.15.32-.31.48-.46,2.98,1.4,4.66,4.65,7.97,5.59.88.66,2.11,1.08,1.79,2.58Z"/>
  <path class="cls-27" d="M428.89,529.15c-.7-.55-1.41-1.1-2.11-1.65-.39-.48-.39-.96,0-1.44,4.82.07,9.53.66,13.9,2.91.11.15.22.31.34.46-4.09,2.21-8.08-.02-12.12-.28Z"/>
  <path class="cls-40" d="M394.65,521.32c2.01-.91,3.84-2.29,6.2-2.24.22,1.89-2.17,2.48-2.13,4.28-1.52-.35-3.68.59-4.07-2.03Z"/>
  <path class="cls-147" d="M412.83,519.28c1.72-.65,3.46.99,5.17-.07,1.44.15,1.52.9.87,1.97,0,0-.22.25-.23.25-1.86-.93-4.88,1.24-5.82-2.16Z"/>
  <path class="cls-123" d="M412.73,537.33c-2.37-.47-1.88-2.34-1.95-3.95,2.74.28,2.05,2.26,1.95,3.95Z"/>
  <path class="cls-60" d="M404.77,527.28c-1.65-.02-3.53.4-3.99-2,1.71-.08,3.71-.76,3.99,2Z"/>
  <path class="cls-36" d="M390,139.87q-4.52-4.05-9.96-1.91c-.92-3.73.12-7.19,1.47-10.57.94-2.34,2.76-3.89,5.34-3.65,2.6.24,4.19,2.17,4.62,4.59.7,3.92.72,7.85-1.47,11.54Z"/>
  <path class="cls-153" d="M380.01,139.3c3.14.28,4.27,2.18,5.41,4.83-3.3-.26-4.8-1.73-5.41-4.83Z"/>
  <path class="cls-64" d="M494.16,185.29c2.21-4.36,4.66-7.15,8.04-9.15,2.13-1.26,4.14-1.1,5.96.48,1.83,1.59,2.26,3.67,1.33,5.86-1.59,3.7-3.77,6.99-7.59,9.45-.93-3.93-1.97-7.78-7.74-6.65Z"/>
  <path class="cls-90" d="M495.65,192.59c-2.47-2.19-2.73-4.02-1.68-6.46,2.28,1.72,2.02,3.76,1.68,6.46Z"/>
  <path class="cls-173" d="M557.57,234.26c1.37,2.67,2.18,4.88,0,6.84-1.33,1.19-2.98,1.51-4.6.49-2.13-1.35-3.53-2.79-.22-4.49,1.61-.83,3.13-1.83,4.82-2.83Z"/>
  <path class="cls-138" d="M229.08,161.33c2.86.39,4.07,1.9,3.99,4.43-.06,1.79-.98,3.18-2.56,3.93-.74.35-5.08-5.48-4.73-6.49.57-1.67,2.39-1.22,3.31-1.87Z"/>
  <path class="cls-193" d="M313.94,479.25c-3.17,10.39,1.39,19.12,5.93,27.87-.34.76-.68,1.51-1.03,2.27-1.48,1.34-1.61,3.74-3.64,4.65-2.54.88-5.26.5-7.84,1.3-5.86,1.81-6.32,1.49-8.22-4.13l-.46.09c-2.1-3.23-1.3-6.73-.84-10.15.31-2.32,2.29-3.06,4.27-3.65,1.93-.57,3.95-.53,5.9-1,1.06-.26,1.79-.84,1.86-2.02.08-1.4-.66-2.13-1.96-2.46-1.64-.41-3.31-.37-4.96-.37-3.74-.01-5.45-1.88-5.49-5.55-.02-1.83.02-3.66-.09-5.49-.13-2.13.09-4.67-3.13-4.62-2.88.05-2.73,2.37-2.89,4.35-.07.83-.03,1.66-.07,2.49-.36,7.11-1.44,8.22-8.45,8.87-1.75.16-4.05-.2-4.05,2.51,0,2.68,2.3,2.36,4.04,2.57,7.83.94,8.51,1.61,8.44,9.72-.03,3.26.81,6.68-1.19,9.73-.18.32-.35.63-.53.95-3.8-.32-7.6-.52-11.41-.63-5.29-.15-7.62-2.35-8.24-7.44-.67-5.57-2.4-10.98-2.08-16.7.45-8.11,3.73-14.96,8.77-21.12q3.43,1.62,1.53,6.35c3.08-5.16,6.71-9.72,10.93-13.81,4.65-4.51,5.96-4.49,10.72.11.46.44.81.98,1.37,1.34-.12-.67-.63-1.08-1.05-1.51-2.19-2.22-3.3-6.57-6.22-6.6-2.36-.02-4.17,3.85-6.49,5.75-2.21,1.81-3.55,4.39-5.12,6.74-.98,1.47-1.92,2.82-3.99,1.89-1.96-2.04.88-3.63.51-5.52,1.32-2.69,3.25-4.9,5.53-6.82,2.46-1.45,4.15-3.72,6.07-5.74,3.65-3.84,4.85-3.71,7.89.56.67.94,1.4,1.84,2.13,2.73,4.2,5.05,8.35,10.13,11.87,15.68,1.29,2.02,2.93,4.11,1.63,6.82Z"/>
  <path class="cls-129" d="M278.82,466.02c1.07,1.98-.32,3.51-.94,5.18l-.02.02c-8.66,9.83-10.78,21.13-7.59,33.64.32,1.27.57,2.59.62,3.89.16,4.59,2.9,6.03,7.04,6.53,3.9.47,8.32-2,11.66,1.88.07,1.49.15,2.98.22,4.48.08,1.67-.61,2.47-2.39,2.23-4.43-.6-8.85-1.24-13.29-1.66-2.02-.19-2.34-1.59-2.74-3.01-.93-3.35-1.78-6.73-2.66-10.09-.6-3.94-1.36-7.86-1.76-11.82-1.26-12.37,4.44-22.16,11.86-31.28Z"/>
  <path class="cls-25" d="M313.94,479.25c-.14-4.04-2.38-7.27-4.85-9.97-3.44-3.77-5.68-8.4-9.26-12.01.62-.65,1.27-.58,1.93-.08,4.77,4.38,8.21,9.79,11.68,15.17.71,1.1,1.21,2.33,2.45,2.97-.65,1.31-1.29,2.61-1.94,3.92Z"/>
  <path class="cls-162" d="M301.76,457.19c-.64.03-1.29.05-1.93.08q-5.01-6.55-10.95-.62c-1.27,1.26-2.39,2.83-4.54,2.56.92-1.15,1.77-2.36,2.77-3.43q7.91-8.51,14.65,1.42Z"/>
  <path class="cls-48" d="M290.11,516.22c-.13-4.32-.5-8.65-.3-12.95.16-3.41-1.04-4.91-4.39-4.85-1.5.03-3-.15-4.49-.08-2.72.13-4.33-.42-4.18-3.81.14-3.16,1.11-4.63,4.37-4.3,1.31.13,2.68-.19,3.98,0,3.45.49,4.37-1.52,4.5-4.34.11-2.32.3-4.67.1-6.98-.32-3.62.89-5.03,4.74-4.92,3.52.1,4.87,1.3,4.36,4.7-.05.32-.01.66,0,1,.11,3.15-.82,6.93.62,9.27,1.68,2.75,5.83,1.04,8.88,1.21,3.08.18,3.41,1.97,3.47,4.33.05,1.88.38,3.75-2.48,3.8-3.43.06-8.01-.96-9.78,1.77-1.63,2.51-.6,6.74-.74,10.21-.01.33-.04.66-.05,1-.61,1.64-1.23,3.29-1.84,4.93-2.01,1.71-3.98,1.06-5.95-.08-.27,0-.53.02-.8.08Z"/>
  <path class="cls-46" d="M312.9,527.21c2.04-.56,4.53.23,6.01-2,2.54-1.83,2.72-4.65,2.93-7.36.2-2.63,1.42-3.82,4.04-3.55,3.89,1.31,5.57,5.08,8.37,7.61,2.34,2.12,4.64,4.29,7.18,6.17.43.28.81.62,1.16,1,.9,1.1,1.26,2.31.73,3.69-4.5,2.89-8.91,6.06-14.75,4.95-6.45-.12-12.59-2.13-18.94-2.86,6.41.99,12.74,2.49,19.22,3.15-.65,3.66-3.9,2.15-5.96,3.02-7.56-1.11-15.27-1.59-22.29-5.11-1.48-2.23-5.02-3.91-2.05-7.38,1.46-.47,2.96-.51,4.32.19,3.75,1.94,6.97.82,10.03-1.54Z"/>
  <path class="cls-41" d="M299.15,511.2c2.23,4.26,5.01,4.76,9.26,2.3,1.88-1.09,4.87-.27,7.36-.32.85,5.6-.19,7.41-5.36,8.23-3.79.6-7.68,1.95-11.44-.26.06-3.31.13-6.63.19-9.94Z"/>
  <path class="cls-23" d="M298.96,521.14c4.14.61,8.12-.74,12.19-.96,4.69-.25,3.2-4.59,4.61-7.01.62-1.59.6-3.72,3.09-3.79-.25,1.28-.51,2.56-.75,3.84-.56,3-.13,7.27-2.91,8.37-4.96,1.95-10.54,2.21-15.96,1.58-1.1-.13-.49-1.3-.27-2.04Z"/>
  <path class="cls-179" d="M290.9,516.14c1.98.03,3.97.05,5.95.08.01,3.13.39,6.3-1.54,9.14-.7,1.02-1.33,1.92-2.71,1.74-1.87-.24-.93-1.56-1.13-2.59-.52-2.79-.66-5.56-.58-8.37Z"/>
  <path class="cls-190" d="M312.9,527.21c-2.54,4.09-5.83,5.39-9.63,3.19-1.56-.9-3.01-1.05-4.59-1.26-.62-.41-1.55-.14-2.01-.9,5.33-1.55,10.81-.82,16.22-1.03Z"/>
  <path class="cls-45" d="M326.57,515.18c-4.37-.58-3.79,2.54-3.72,5.11.07,2.83.2,5.53-3.93,4.92,1.04-4.42,2.07-8.84,3.11-13.26.26.14.54.17.82.09,2.63-.6,4.23.03,3.72,3.14Z"/>
  <path class="cls-176" d="M296.68,528.24c.8.01,1.62-.02,2.01.9-2.25,3.13,2.43,3.66,2.25,6.02.55,1.24,1.63,2.36.84,3.89-4.24-2.35-6.38-6.1-7.21-10.73.7-.02,1.41-.05,2.11-.07Z"/>
  <path class="cls-37" d="M156.25,236c3.68-5.57,7.11-6.78,12.13-4.48,4.48,2.05,6.75,6.69,5.56,11.48-.54,2.18-1.19,3.57-3.89,1.69-4.45-3.11-9.18-5.81-13.8-8.69Z"/>
  <path class="cls-160" d="M362.9,432.19c-4.57,5.06.24,8.82,1.81,13.03-1.2,1.73-4.15,1.73-4.17,4.82,0,1.47-2,1.44-2.49.15-1.28-3.35-3.81-1.95-6-1.97-1.37-2.49.23-4.27,1.53-6.05,1.25-1.71,2.62-3.33,3.41-5.34,1.12-1.85,1.01-4.37,3.12-5.67,1.01.12,2.13-.03,2.8,1.02Z"/>
  <path class="cls-130" d="M357.97,437.38c-1.7,3.77-5.85,6.2-5.93,10.85-.19.27-.27.58-.25.91-2.91-3.15.11-5.54,1.05-8.2,1.97-1.29,1.85-3.51,2.42-5.42,1.47-.21,2.14.76,2.71,1.86Z"/>
  <path class="cls-160" d="M364.89,445.44c2.39,1.19.78,4.43,2.93,5.74-1.1,1.55-2.07.89-2.39-.42-.42-1.72-.38-3.54-.54-5.32Z"/>
  <path class="cls-110" d="M357.97,437.38c-1.32-.03-1.92-1.08-2.71-1.87-.45-.85-.68-2-1.38-2.51-4.04-2.94-4.74-6.7-3.38-11.27.4-1.36.14-2.91.19-4.38.71.62,1.42,1.25,2.13,1.87,1.55,4.51,6.24,7.12,7.28,11.95-.55,2.12-.58,4.42-2.13,6.21Z"/>
  <path class="cls-185" d="M532.79,229.38c-3.44-.1-5.71-3.23-4.74-6.52,1.17-3.94,8.91-9.69,12.98-9.64,3.21.04,5.48,2.87,4.82,6.02-.86,4.14-8.75,10.26-13.06,10.14Z"/>
  <path class="cls-89" d="M292.75,135.68c1.74,2.62,2.8,4.22,4.12,6.21-1.77.45-3.2.82-4.77,1.22-.51-2.32-.17-4.29.65-7.43Z"/>
  <path class="cls-191" d="M440.67,528.97c-4.77-.14-9.41-.9-13.84-2.77-5.21-1.12-6.77-5.53-8.67-9.64-1.58-6.79-1.26-13.1,4.46-18.1.88-.77,1.77-1.48,2.82-1.98,1.77-.84,3.93-2.24,5.36-.21,1.56,2.23-.1,3.96-2.15,5.11-5.19,4.16-6.53,7.91-4.71,13.24,1.95,5.71,6.13,8.59,12.45,8.59,7.45,0,12.35-3.82,15.42-10.36.21-.94.54-1.84.71-2.79.5-2.87.47-5.75.03-8.62-.2-.68-.27-1.38-.53-2.04-.73-4.55-3.84-7.5-7.04-10.38-2.89-4.63-7.77-5.43-12.44-5.66-8.96-.44-16.94,2.55-22.72,9.58-2.01,2.44-3,1.15-4.56.25-.39-1.14.21-2.09.57-3.08,2.35-1.94,4.7-3.87,7.06-5.81,7.41-3.55,15.02-5.55,23.39-4.16,8.39,1.39,18.94,8.95,20.68,18.81,2.53,14.36-.3,20.72-13.4,28.07-1.01.56-1.92,1.29-2.87,1.95Z"/>
  <path class="cls-73" d="M384.81,519.12c-1.34,1.7-2.69,3.39-4.03,5.09-5.21,5.73-10.66,11.21-17.44,15.11-2.95,1.69-5.91,1.47-8.86-.44-2.65-1.71-4.62-4.27-7.47-5.68-1.46-.82-2.7-1.89-3.59-3.33-.66-1.29-2.17-1.63-3.03-2.69-.35-.61-.54-1.26-.64-1.95.14-3.37-2.37-4.47-4.83-5.62-.34-.35-.53-.78-.6-1.26,2.44-4.52,3.73-4.99,8.12-2.66,1.66.88,2.91,2,4.45-.39,1.02-1.59,2.96-.92,4.61-.46,5.23,1.46,10.43,2.18,15.29-1.22,1.28-.9,2.75-.84,3.57.37,2.01,2.96,4.72,2.41,7.56,2.02,1.8-.25,3.68-.28,5.44.31,1.27.42,2.68.98,1.45,2.79Z"/>
  <path class="cls-120" d="M320.76,501.21c-1.66-2.45-3.43-4.86-3.69-7.96,4.93-1.82,10.12-.87,15.13-1.03,20.86-.66,41.73-1.01,62.6.14.82.05,1.6.09,2.43-.18,4.19-1.38,4.2-1.35,3.7,3.27-1.17,5.5-4.07,10.04-7.9,14.05-2.89-1.09,2.23-5.43-2.18-5.65-2.37-.12-4.54-.96-6.85-1.14-3.48-.28-6.97-.1-10.46-.14-12.29-.14-24.59-.16-36.86.07-3.21.06-7.51-1.49-10.46,2.24-1.03,1.3-2.07-.31-2.29-1.44-.36-1.87-.85-3.25-3.15-2.22Z"/>
  <path class="cls-114" d="M320.76,501.21c.35-1.81,1.79-2.58,3.15-3.65,1.9,2.17.21,4.75,1.56,7.13,1.79-1.61,1.91-10.09,6.32-1.55,1.28-1.31,1.25-5.01,4.31-2.25.86.77,2.87.32,4.36.32,13.6.02,27.2.23,40.79-.13,3.91-.11,7.52,2.81,11.73.52,1.33-.72,1.65,1.85,1.33,3.38-.32,1.54-2.09,2.67-1.28,4.52-.67,2.22-2.43,3.56-4.03,5.02-5.78-3.41-11.86-5.05-18.54-3.08-1.47.43-2.91.52-4.39,0-3.54-1.25-7.28-1.17-10.83-.63-3.64.55-7.09.49-10.72-.03-5.14-.74-10.27-.26-14.88,2.62-3.21.44-4.12-1.7-4.7-4.21-.94-2.89-4.04-4.66-4.17-7.98Z"/>
  <path class="cls-79" d="M400.93,495.45c-.31-1.2.43-2.66-1.31-3.93-.81,3.87-2.72,4.1-5.69,2.05-1.04-.72-2.9-.34-4.38-.34-19.2.03-38.41-.16-57.6.31-4.99.12-9.92.58-14.87-.29-.19-.28-.29-.59-.29-.93-.6-3.72-.67-7.44.04-11.16,0,0,.11-.04.11-.05,2.87,6.73,8.8,5.09,14.08,5.1,20.14.04,40.29.04,60.43-.02,2.42,0,4.75.05,7.26-.97,2.34-.95,1.87,3.28,3.95,3.95.24,2.32-.44,4.38-1.72,6.29Z"/>
  <path class="cls-131" d="M328.88,513.12c2.11-2.7,4.88-3.93,8.3-3.92,8.36.03,16.79-.61,25.06.24,5.17.53,10.15.05,15.15-.36,3.88-.32,6.68,2.53,10.38,2.48,1.28-.02.98,1.86,1.21,2.95-1.77,1.19-2.03,3.76-4.18,4.61-2.57-3.74-6.33-1.96-9.34-1.42-2.57.46-4.22,1.48-5.06-2-.28-1.18-1.33-2.89-3.3-1.06-4.84,4.48-10.4,2.88-15.8,1.46-2.04-.54-4-2.65-3.9,1.86.06,2.76-1.37,1.69-3.13.52-6.54-4.32-5.95-4.58-9.47.75-3.99-.08-6.23-1.87-5.93-6.12Z"/>
  <path class="cls-96" d="M347.03,531.92c3.47,1.03,5.31,4.27,8.22,6.11,2.68,1.69,4.91,1.81,7.75.18,5.08-2.9,8.92-7.23,13.35-10.86,1.42-1.16,2.68-2.47,4.43-3.13.4.73,1.07.96,1.85.97-2.29,3.07-4.3,6.42-8.01,8.08-4.17,1.87-7.04,5.47-10.76,7.95-2.69,1.28-5.39,2.41-8.16.18-1.68-1.17-3.37-2.34-5.05-3.5-2.92-.21-4.66-1.72-5.12-4.64.28-.69.8-1.11,1.5-1.33Z"/>
  <path class="cls-30" d="M403.58,498.34c1.14,5.97-1.87,11.36-2.44,17.1-.17,1.75-2.23,1.68-3.5,2.33-1.8.93-4.36.75-4.98,3.41-.65,0-1.29.01-1.93.02-1.21.63-2.06.66-1.82-1.1,1.26-1.61,2.52-3.21,3.79-4.82,3.54-1.66,5.13-4.8,6.24-8.29,1.55-2.89,3.1-5.77,4.65-8.66Z"/>
  <path class="cls-14" d="M398.93,506.99c.06,4.38-1.29,7.68-6.24,8.29,2.08-2.76,4.16-5.53,6.24-8.29Z"/>
  <path class="cls-49" d="M388.91,520.1c.61.37,1.22.74,1.82,1.11-.65,3.36-3.35,1.44-5.1,1.98.7-1.44,1.79-2.47,3.28-3.08Z"/>
  <path class="cls-168" d="M366.82,439.29c-1.28-1.77-1.19-3.54-.02-5.31,0,1.77.01,3.54.02,5.31Z"/>
  <path class="cls-11" d="M328.88,513.12c1.15,2.84,3.37,4.65,5.93,6.12,0,0,.03.02.03.02,2.44,1.58,4.52,3.52,5.95,6.09.06.54.12,1.08.18,1.62.48.7.51,1.38-.06,2.05-5.73-3.62-9.79-8.98-14.34-13.83-.64-1.76-2.01-2.65-3.73-3.14-.05-1.5.18-2.79,2.08-2.86,2.07.56,1.76,3.5,3.95,3.94Z"/>
  <path class="cls-192" d="M316.81,481.15c-.01,3.72-.03,7.44-.04,11.16-1.47-3.73-1.59-7.45.04-11.16Z"/>
  <path class="cls-29" d="M393.91,529.19c1.85,3.81,4,.43,6.9-.24-3.86,5.45.69,7.12,3.18,9.66.78.79,2.17,1.26,1.54,2.71-.5,1.17-1.63.82-2.6.67-1.8-1.7-3.91-3.17-5.34-5.14-2.17-2.97-3.94,3.8-5.32.14-.5-1.33,2.78-3.13.2-5.39-1.39-1.22-.4-2.38,1.44-2.4Z"/>
  <path class="cls-151" d="M391.15,545.05c-.07-1.71-2.52-1.85-2.43-3.67,2.61.37,5.26.67,6.04,3.88-1.2-.07-2.41-.14-3.61-.21Z"/>
  <path class="cls-125" d="M386.92,541.09c-1.63-.04-3.71.91-4.08-1.87,1.63.03,3.62-.72,4.08,1.87Z"/>
  <path class="cls-184" d="M378.77,537.32c-1.57-.21-3.73.62-3.82-2.18,1.6.15,3.64-.47,3.82,2.18Z"/>
  <path class="cls-86" d="M345.57,533.46c1.69,1.48,3.38,2.95,5.08,4.43-2.94,1.22-5.87,2.44-8.81,3.66-10.44,3.97-20.88,7.94-31.32,11.92-2.18-2.14-3.41-4.73-3.74-7.75,4.56-3.83,10.43-4.05,15.78-5.7,1.71-1.38,4.3-.15,5.85-1.99.06-.36.27-.57.63-.63,5.16-.69,9.51-3.62,14.35-5.2,1.02-.08,1.82.21,2.18,1.27Z"/>
  <path class="cls-163" d="M322.56,540.02c-4.93,2.81-10.16,4.8-15.78,5.7-2.72-1.43-2.54-5.04-5.01-6.67-.41-1.27-1.3-2.43-.84-3.89,6.99,2.58,14.45,3.09,21.63,4.86Z"/>
  <path class="cls-187" d="M355.7,541.39c2.72-.06,5.44-.12,8.16-.18-4.16,3.97-5.6,4-8.16.18Z"/>
  <path class="cls-177" d="M427.74,501.01c1.39-1.08,3.71-2.46,2.43-4.1-1.39-1.78-3.73-.17-5.27.96-6.68,4.9-8.23,11.47-5.9,19.18-.39.53-.87.64-1.45.32-3.25-12.75,1.97-22.03,13.13-23.45,2.89-.37,5.65.09,8.28,1.2,3.41,1.45,5.28,4.09,4.76,7.84-.44,3.19-2.29,5.56-5.62,6.19-3.65.69-6.56-.47-8.27-3.97-.44-.89-.81-1.82-1.22-2.73-.25-.51-.87-.79-.88-1.45Z"/>
  <path class="cls-69" d="M427.74,501.01c.29.48.59.97.88,1.45-4.89,4.34-5.88,9.11-2.92,14.05,3.02,5.05,9.53,7.12,15.81,5.13,5.43-1.72,8.22-5.89,10.28-10.78.78.52.29,1.6.95,2.18-3.46,7.2-9.09,11.2-17.16,11.07-6.28-.1-10.6-3.55-12.5-9.33-1.79-5.43-.43-9.43,4.66-13.77Z"/>
  <path class="cls-175" d="M444.62,512.12c-3.94,6.52-10.09,7.02-14.98.99,5.42,1.81,10.27,1.92,14.98-.99Z"/>
  <path class="cls-182" d="M444.98,489.03c4.98,1.63,7.14,5.4,7.81,10.3-.44.35-.5,1.01-1.01,1.3-1.64-3.92-3.52-7.69-6.95-10.43.05-.39.1-.79.15-1.18Z"/>
  <path class="cls-106" d="M417.54,517.38c.48-.1.97-.21,1.45-.31,1.8,3.74,4.56,6.66,7.84,9.14-.02.43-.04.87-.06,1.3-3.71-.75-5.52-3.89-7.91-6.31-.29-.66-.58-1.32-.87-1.98-.15-.61-.3-1.23-.45-1.84Z"/>
  <path class="cls-3" d="M451.78,500.63c.34-.44.68-.87,1.01-1.3.05.56.1,1.12.14,1.68.62,3.14.6,6.27.01,9.41-.07.88-.14,1.75-.21,2.63-.9-.47-.88-1.34-.95-2.18,0-3.41,0-6.82,0-10.23Z"/>
  <path class="cls-143" d="M277.87,471.2c.98-.03,2.2.22,2.68-.84,2.64-5.88,7.66-9.67,11.98-14.11.99-1.02,1.65-1.86,2.53-.72,3.14,4.07,7.39,7.47,8.84,13.86-1.69-1.52-2.67-2.34-3.59-3.23-6.51-6.32-5.24-6.9-12.08.33-4.15,4.38-7.68,9.35-11.84,14.48-.79-3.77,3.91-6.29,1.45-9.74,0,0,.02-.02.02-.02Z"/>
  <path class="cls-8" d="M329.04,537.39c-.08.35-.29.56-.64.64-6.77.23-13.28-1.03-19.6-3.34,6.96-.58,13.42,2.34,20.24,2.71Z"/>
  <path class="cls-11" d="M345.57,533.46c-.88-.16-1.71-.41-2.18-1.27-.57-.96-1.14-1.91-1.71-2.87.74-.81,1.55-.66,2.4-.21.98.94,1.96,1.87,2.95,2.81-.49.51-.97,1.03-1.46,1.54Z"/>
  <path class="cls-96" d="M344.08,529.11c-.8.07-1.6.14-2.4.21-.3.01-.56-.08-.78-.29.02-.68.04-1.37.07-2.05,1.51.02,2.31,1.07,3.11,2.13Z"/>
  <path class="cls-69" d="M452.94,510.42c0-3.14,0-6.27-.01-9.41,1.42,3.13,1.39,6.27.01,9.41Z"/>
  <path class="cls-131" d="M340.79,525.35c-2.52-1.51-4.79-3.26-5.95-6.09,4.26-.2,6.27,1.81,5.95,6.09Z"/>
</svg>